<svg xmlns="http://www.w3.org/2000/svg" xmlns:xlink="http://www.w3.org/1999/xlink" width="2000" zoomAndPan="magnify" viewBox="0 0 1500 1499.999933" height="2000" preserveAspectRatio="xMidYMid meet" version="1.0"><defs><g/><clipPath id="5c74b470eb"><rect x="0" width="999" y="0" height="273"/></clipPath><clipPath id="b0c7665a24"><path d="M 669.398438 479.019531 L 718.898438 479.019531 L 718.898438 943 L 669.398438 943 Z M 669.398438 479.019531 " clip-rule="nonzero"/></clipPath><clipPath id="e173467b00"><path d="M 669.398438 479.019531 L 718.898438 479.019531 L 718.898438 943 L 669.398438 943 Z M 669.398438 479.019531 " clip-rule="nonzero"/></clipPath><clipPath id="03097e3948"><path d="M 248.535156 446.335938 L 553 446.335938 L 553 579.835938 L 248.535156 579.835938 Z M 248.535156 446.335938 " clip-rule="nonzero"/></clipPath><clipPath id="bcf317e6f4"><path d="M 0.535156 0.398438 L 304.871094 0.398438 L 304.871094 133.835938 L 0.535156 133.835938 Z M 0.535156 0.398438 " clip-rule="nonzero"/></clipPath><clipPath id="1e33653394"><path d="M 22 29 L 146 29 L 146 133.835938 L 22 133.835938 Z M 22 29 " clip-rule="nonzero"/></clipPath><clipPath id="6152a4c0e7"><rect x="0" width="305" y="0" height="134"/></clipPath><clipPath id="581e2b160c"><path d="M 676.34375 564.160156 L 680.09375 564.160156 L 680.09375 685.742188 L 676.34375 685.742188 Z M 676.34375 564.160156 " clip-rule="nonzero"/></clipPath><clipPath id="7490e2f2ef"><path d="M 678.21875 564.160156 C 679.253906 564.160156 680.09375 564.996094 680.09375 566.035156 L 680.09375 683.863281 C 680.09375 684.898438 679.253906 685.738281 678.21875 685.738281 C 677.183594 685.738281 676.34375 684.898438 676.34375 683.863281 L 676.34375 566.035156 C 676.34375 564.996094 677.183594 564.160156 678.21875 564.160156 Z M 678.21875 564.160156 " clip-rule="nonzero"/></clipPath><clipPath id="2720cc4cb0"><path d="M 0.34375 0.160156 L 4.09375 0.160156 L 4.09375 121.742188 L 0.34375 121.742188 Z M 0.34375 0.160156 " clip-rule="nonzero"/></clipPath><clipPath id="20a8d3e386"><path d="M 2.21875 0.160156 C 3.253906 0.160156 4.09375 0.996094 4.09375 2.035156 L 4.09375 119.863281 C 4.09375 120.898438 3.253906 121.738281 2.21875 121.738281 C 1.183594 121.738281 0.34375 120.898438 0.34375 119.863281 L 0.34375 2.035156 C 0.34375 0.996094 1.183594 0.160156 2.21875 0.160156 Z M 2.21875 0.160156 " clip-rule="nonzero"/></clipPath><clipPath id="0d2fc1fdb0"><rect x="0" width="5" y="0" height="122"/></clipPath><clipPath id="fb5d78ec95"><path d="M 676.34375 543.992188 L 680.09375 543.992188 L 680.09375 547.742188 L 676.34375 547.742188 Z M 676.34375 543.992188 " clip-rule="nonzero"/></clipPath><clipPath id="6ae8b10445"><path d="M 678.21875 543.992188 C 679.253906 543.992188 680.09375 544.832031 680.09375 545.867188 C 680.09375 546.902344 679.253906 547.742188 678.21875 547.742188 C 677.183594 547.742188 676.34375 546.902344 676.34375 545.867188 C 676.34375 544.832031 677.183594 543.992188 678.21875 543.992188 Z M 678.21875 543.992188 " clip-rule="nonzero"/></clipPath><clipPath id="b9e34322be"><path d="M 0.34375 0.992188 L 4.09375 0.992188 L 4.09375 4.742188 L 0.34375 4.742188 Z M 0.34375 0.992188 " clip-rule="nonzero"/></clipPath><clipPath id="b2b9cade23"><path d="M 2.21875 0.992188 C 3.253906 0.992188 4.09375 1.832031 4.09375 2.867188 C 4.09375 3.902344 3.253906 4.742188 2.21875 4.742188 C 1.183594 4.742188 0.34375 3.902344 0.34375 2.867188 C 0.34375 1.832031 1.183594 0.992188 2.21875 0.992188 Z M 2.21875 0.992188 " clip-rule="nonzero"/></clipPath><clipPath id="7642876b47"><rect x="0" width="5" y="0" height="5"/></clipPath><clipPath id="0ca997de95"><path d="M 692.007812 488.25 L 695.757812 488.25 L 695.757812 496.703125 L 692.007812 496.703125 Z M 692.007812 488.25 " clip-rule="nonzero"/></clipPath><clipPath id="1d17bd5842"><path d="M 693.882812 488.25 C 694.917969 488.25 695.757812 489.089844 695.757812 490.125 L 695.757812 494.820312 C 695.757812 495.855469 694.917969 496.695312 693.882812 496.695312 C 692.847656 496.695312 692.007812 495.855469 692.007812 494.820312 L 692.007812 490.125 C 692.007812 489.089844 692.847656 488.25 693.882812 488.25 Z M 693.882812 488.25 " clip-rule="nonzero"/></clipPath><clipPath id="74b8fb714e"><path d="M 0.0078125 0.25 L 3.757812 0.25 L 3.757812 8.703125 L 0.0078125 8.703125 Z M 0.0078125 0.25 " clip-rule="nonzero"/></clipPath><clipPath id="da74528877"><path d="M 1.882812 0.25 C 2.917969 0.25 3.757812 1.089844 3.757812 2.125 L 3.757812 6.820312 C 3.757812 7.855469 2.917969 8.695312 1.882812 8.695312 C 0.847656 8.695312 0.0078125 7.855469 0.0078125 6.820312 L 0.0078125 2.125 C 0.0078125 1.089844 0.847656 0.25 1.882812 0.25 Z M 1.882812 0.25 " clip-rule="nonzero"/></clipPath><clipPath id="63829c4a77"><rect x="0" width="4" y="0" height="9"/></clipPath><clipPath id="4602819c26"><path d="M 698.851562 935.851562 L 702.601562 935.851562 L 702.601562 939.601562 L 698.851562 939.601562 Z M 698.851562 935.851562 " clip-rule="nonzero"/></clipPath><clipPath id="6887ddbc8d"><path d="M 700.726562 935.851562 C 701.761719 935.851562 702.601562 936.6875 702.601562 937.726562 C 702.601562 938.761719 701.761719 939.601562 700.726562 939.601562 C 699.6875 939.601562 698.851562 938.761719 698.851562 937.726562 C 698.851562 936.6875 699.6875 935.851562 700.726562 935.851562 Z M 700.726562 935.851562 " clip-rule="nonzero"/></clipPath><clipPath id="99c0c5df65"><path d="M 0.851562 0.851562 L 4.601562 0.851562 L 4.601562 4.601562 L 0.851562 4.601562 Z M 0.851562 0.851562 " clip-rule="nonzero"/></clipPath><clipPath id="003090745d"><path d="M 2.726562 0.851562 C 3.761719 0.851562 4.601562 1.6875 4.601562 2.726562 C 4.601562 3.761719 3.761719 4.601562 2.726562 4.601562 C 1.6875 4.601562 0.851562 3.761719 0.851562 2.726562 C 0.851562 1.6875 1.6875 0.851562 2.726562 0.851562 Z M 2.726562 0.851562 " clip-rule="nonzero"/></clipPath><clipPath id="3c36965b0d"><rect x="0" width="5" y="0" height="5"/></clipPath><clipPath id="af08dcaeca"><path d="M 700.726562 895 L 1120.726562 895 L 1120.726562 955 L 700.726562 955 Z M 700.726562 895 " clip-rule="nonzero"/></clipPath></defs><rect x="-150" width="1800" fill="#ffffff" y="-149.999993" height="1799.99992" fill-opacity="1"/><rect x="-150" width="1800" fill="#f8fafc" y="-149.999993" height="1799.99992" fill-opacity="1"/><g transform="matrix(1, 0, 0, 1, 254, 515)"><g clip-path="url(#5c74b470eb)"><g fill="#0a0a0a" fill-opacity="1"><g transform="translate(0.636401, 195.63813)"><g><path d="M 115.015625 -178.375 L 115.015625 -142.6875 L 53.625 -142.6875 L 53.625 -107.234375 L 112.421875 -107.234375 L 112.421875 -71.5625 L 53.625 -71.5625 L 53.625 -35.671875 L 115.015625 -35.671875 L 115.015625 0 L 12.96875 0 L 12.96875 -178.375 Z M 115.015625 -178.375 "/></g></g></g><g fill="#0a0a0a" fill-opacity="1"><g transform="translate(126.014441, 195.63813)"><g><path d="M 78.703125 -181.609375 C 88.359375 -181.609375 97.796875 -180.203125 107.015625 -177.390625 C 116.242188 -174.578125 123.09375 -171.804688 127.5625 -169.078125 L 134.046875 -164.75 L 117.609375 -132.3125 C 116.316406 -133.175781 114.515625 -134.289062 112.203125 -135.65625 C 109.898438 -137.03125 105.578125 -138.867188 99.234375 -141.171875 C 92.890625 -143.484375 86.984375 -144.640625 81.515625 -144.640625 C 74.734375 -144.640625 69.503906 -143.195312 65.828125 -140.3125 C 62.160156 -137.425781 60.328125 -133.535156 60.328125 -128.640625 C 60.328125 -126.191406 61.191406 -123.921875 62.921875 -121.828125 C 64.648438 -119.742188 67.601562 -117.507812 71.78125 -115.125 C 75.957031 -112.75 79.628906 -110.835938 82.796875 -109.390625 C 85.972656 -107.953125 90.875 -105.789062 97.5 -102.90625 C 109.03125 -98.007812 118.867188 -91.34375 127.015625 -82.90625 C 135.160156 -74.476562 139.234375 -64.929688 139.234375 -54.265625 C 139.234375 -44.035156 137.394531 -35.097656 133.71875 -27.453125 C 130.039062 -19.816406 124.992188 -13.835938 118.578125 -9.515625 C 112.171875 -5.191406 105.070312 -1.984375 97.28125 0.109375 C 89.5 2.203125 81.070312 3.25 72 3.25 C 64.21875 3.25 56.578125 2.453125 49.078125 0.859375 C 41.578125 -0.722656 35.304688 -2.703125 30.265625 -5.078125 C 25.222656 -7.453125 20.679688 -9.789062 16.640625 -12.09375 C 12.609375 -14.40625 9.65625 -16.351562 7.78125 -17.9375 L 4.96875 -20.328125 L 25.296875 -54.484375 C 27.023438 -53.046875 29.398438 -51.207031 32.421875 -48.96875 C 35.453125 -46.738281 40.820312 -43.75 48.53125 -40 C 56.25 -36.25 63.0625 -34.375 68.96875 -34.375 C 86.125 -34.375 94.703125 -40.210938 94.703125 -51.890625 C 94.703125 -54.335938 94.085938 -56.601562 92.859375 -58.6875 C 91.628906 -60.78125 89.460938 -62.875 86.359375 -64.96875 C 83.265625 -67.0625 80.53125 -68.71875 78.15625 -69.9375 C 75.78125 -71.164062 71.890625 -73.039062 66.484375 -75.5625 C 61.078125 -78.082031 57.078125 -79.992188 54.484375 -81.296875 C 43.671875 -86.628906 35.3125 -93.296875 29.40625 -101.296875 C 23.5 -109.296875 20.546875 -117.90625 20.546875 -127.125 C 20.546875 -143.125 26.453125 -156.203125 38.265625 -166.359375 C 50.085938 -176.523438 63.566406 -181.609375 78.703125 -181.609375 Z M 78.703125 -181.609375 "/></g></g></g><g fill="#0a0a0a" fill-opacity="1"><g transform="translate(271.280006, 195.63813)"><g><path d="M 12.96875 -178.375 L 78.046875 -178.375 C 96.210938 -178.375 110.914062 -173.6875 122.15625 -164.3125 C 133.394531 -154.945312 139.015625 -141.328125 139.015625 -123.453125 C 139.015625 -105.578125 133.320312 -91.554688 121.9375 -81.390625 C 110.550781 -71.234375 95.921875 -66.15625 78.046875 -66.15625 L 53.625 -66.15625 L 53.625 0 L 12.96875 0 Z M 53.625 -98.59375 L 65.078125 -98.59375 C 74.160156 -98.59375 81.617188 -100.425781 87.453125 -104.09375 C 93.285156 -107.769531 96.203125 -113.789062 96.203125 -122.15625 C 96.203125 -130.65625 93.285156 -136.742188 87.453125 -140.421875 C 81.617188 -144.097656 74.160156 -145.9375 65.078125 -145.9375 L 53.625 -145.9375 Z M 53.625 -98.59375 "/></g></g></g><g fill="#0a0a0a" fill-opacity="1"><g transform="translate(415.248546, 195.63813)"><g><path d="M 115.015625 -178.375 L 115.015625 -142.6875 L 53.625 -142.6875 L 53.625 -107.234375 L 112.421875 -107.234375 L 112.421875 -71.5625 L 53.625 -71.5625 L 53.625 -35.671875 L 115.015625 -35.671875 L 115.015625 0 L 12.96875 0 L 12.96875 -178.375 Z M 115.015625 -178.375 "/></g></g></g><g fill="#0a0a0a" fill-opacity="1"><g transform="translate(540.626586, 195.63813)"><g><path d="M 115.015625 -178.375 L 115.015625 -142.6875 L 53.625 -142.6875 L 53.625 -107.234375 L 112.421875 -107.234375 L 112.421875 -71.5625 L 53.625 -71.5625 L 53.625 -35.671875 L 115.015625 -35.671875 L 115.015625 0 L 12.96875 0 L 12.96875 -178.375 Z M 115.015625 -178.375 "/></g></g></g><g fill="#0a0a0a" fill-opacity="1"><g transform="translate(666.004626, 195.63813)"><g><path d="M 162.796875 -178.375 L 74.375 -35.671875 L 156.96875 -35.671875 L 156.96875 0 L 3.453125 0 L 91.671875 -142.6875 L 16 -142.6875 L 16 -178.375 Z M 162.796875 -178.375 "/></g></g></g><g fill="#0a0a0a" fill-opacity="1"><g transform="translate(832.238579, 195.63813)"><g><path d="M -6.484375 -178.375 L 42.375 -178.375 L 79.5625 -121.296875 L 116.75 -178.375 L 165.609375 -178.375 L 99.890625 -80 L 99.890625 0 L 59.234375 0 L 59.234375 -80 Z M -6.484375 -178.375 "/></g></g></g></g></g><g fill="#0a0a0a" fill-opacity="1"><g transform="translate(735.432212, 767.17801)"><g><path d="M 39.375 -54.375 C 42.195312 -54.375 44.695312 -53.953125 46.875 -53.109375 C 49.0625 -52.273438 50.875 -51.070312 52.3125 -49.5 C 53.757812 -47.9375 54.859375 -46.046875 55.609375 -43.828125 C 56.359375 -41.609375 56.734375 -39.109375 56.734375 -36.328125 C 56.734375 -33.679688 56.421875 -30.925781 55.796875 -28.0625 C 55.171875 -25.207031 54.25 -22.390625 53.03125 -19.609375 C 51.820312 -16.828125 50.320312 -14.191406 48.53125 -11.703125 C 46.75 -9.222656 44.695312 -7.035156 42.375 -5.140625 C 40.050781 -3.242188 37.460938 -1.742188 34.609375 -0.640625 C 31.753906 0.460938 28.679688 1.015625 25.390625 1.015625 C 22.679688 1.015625 20.21875 0.601562 18 -0.21875 C 15.789062 -1.039062 13.898438 -2.242188 12.328125 -3.828125 C 10.753906 -5.421875 9.554688 -7.367188 8.734375 -9.671875 C 7.910156 -11.972656 7.5 -14.609375 7.5 -17.578125 C 7.5 -19.960938 7.75 -22.441406 8.25 -25.015625 C 8.75 -27.585938 9.5 -30.148438 10.5 -32.703125 C 11.5 -35.265625 12.738281 -37.703125 14.21875 -40.015625 C 15.707031 -42.335938 17.429688 -44.472656 19.390625 -46.421875 C 21.359375 -48.367188 23.566406 -50.019531 26.015625 -51.375 C 28.460938 -52.738281 31.128906 -53.707031 34.015625 -54.28125 C 35.054688 -54.457031 35.828125 -54.4375 36.328125 -54.21875 C 36.828125 -54.007812 37.148438 -53.597656 37.296875 -52.984375 C 37.472656 -52.523438 37.453125 -52.070312 37.234375 -51.625 C 37.023438 -51.175781 36.488281 -50.863281 35.625 -50.6875 C 33.09375 -50.1875 30.769531 -49.328125 28.65625 -48.109375 C 26.550781 -46.898438 24.632812 -45.421875 22.90625 -43.671875 C 21.175781 -41.921875 19.65625 -39.984375 18.34375 -37.859375 C 17.039062 -35.734375 15.953125 -33.515625 15.078125 -31.203125 C 14.203125 -28.898438 13.539062 -26.597656 13.09375 -24.296875 C 12.65625 -21.992188 12.4375 -19.753906 12.4375 -17.578125 C 12.4375 -15.359375 12.738281 -13.375 13.34375 -11.625 C 13.945312 -9.875 14.835938 -8.398438 16.015625 -7.203125 C 17.191406 -6.003906 18.609375 -5.09375 20.265625 -4.46875 C 21.929688 -3.84375 23.800781 -3.53125 25.875 -3.53125 C 28.550781 -3.53125 31.050781 -4.007812 33.375 -4.96875 C 35.695312 -5.9375 37.8125 -7.257812 39.71875 -8.9375 C 41.632812 -10.625 43.351562 -12.554688 44.875 -14.734375 C 46.394531 -16.910156 47.660156 -19.222656 48.671875 -21.671875 C 49.691406 -24.117188 50.46875 -26.597656 51 -29.109375 C 51.539062 -31.628906 51.8125 -34.035156 51.8125 -36.328125 C 51.8125 -38.472656 51.523438 -40.375 50.953125 -42.03125 C 50.378906 -43.6875 49.539062 -45.09375 48.4375 -46.25 C 47.332031 -47.414062 45.945312 -48.300781 44.28125 -48.90625 C 42.625 -49.519531 40.722656 -49.828125 38.578125 -49.828125 C 37.285156 -49.828125 36.09375 -49.617188 35 -49.203125 C 33.914062 -48.796875 32.960938 -48.207031 32.140625 -47.4375 C 31.328125 -46.675781 30.703125 -45.796875 30.265625 -44.796875 C 29.835938 -43.796875 29.625 -42.722656 29.625 -41.578125 C 29.625 -40.285156 29.890625 -39.164062 30.421875 -38.21875 C 30.960938 -37.28125 31.769531 -36.488281 32.84375 -35.84375 C 33.914062 -35.195312 35.238281 -34.722656 36.8125 -34.421875 C 38.382812 -34.117188 40.222656 -33.96875 42.328125 -33.96875 C 44.296875 -33.96875 46.445312 -34.128906 48.78125 -34.453125 C 51.125 -34.773438 53.578125 -35.253906 56.140625 -35.890625 C 58.710938 -36.535156 61.34375 -37.304688 64.03125 -38.203125 C 64.78125 -38.453125 65.375 -38.46875 65.8125 -38.25 C 66.257812 -38.039062 66.59375 -37.578125 66.8125 -36.859375 C 67.03125 -36.179688 67.019531 -35.632812 66.78125 -35.21875 C 66.550781 -34.8125 66.046875 -34.46875 65.265625 -34.1875 C 61.972656 -33.039062 58.976562 -32.128906 56.28125 -31.453125 C 53.582031 -30.773438 51.082031 -30.28125 48.78125 -29.96875 C 46.476562 -29.664062 44.289062 -29.515625 42.21875 -29.515625 C 39.394531 -29.515625 36.882812 -29.765625 34.6875 -30.265625 C 32.488281 -30.765625 30.648438 -31.503906 29.171875 -32.484375 C 27.691406 -33.472656 26.578125 -34.691406 25.828125 -36.140625 C 25.078125 -37.585938 24.703125 -39.289062 24.703125 -41.25 C 24.703125 -42.613281 24.929688 -43.9375 25.390625 -45.21875 C 25.859375 -46.507812 26.53125 -47.707031 27.40625 -48.8125 C 28.28125 -49.914062 29.320312 -50.882812 30.53125 -51.71875 C 31.75 -52.5625 33.109375 -53.210938 34.609375 -53.671875 C 36.109375 -54.140625 37.695312 -54.375 39.375 -54.375 Z M 39.375 -54.375 "/></g></g></g><g fill="#0a0a0a" fill-opacity="1"><g transform="translate(794.046751, 767.17801)"><g><path d="M 4.34375 0.796875 C 3.769531 0.796875 3.238281 0.671875 2.75 0.421875 C 2.269531 0.171875 2.140625 -0.289062 2.359375 -0.96875 L 9.328125 -22.5 C 9.429688 -22.851562 9.425781 -23.15625 9.3125 -23.40625 C 9.207031 -23.65625 8.976562 -23.78125 8.625 -23.78125 C 8.300781 -23.78125 7.925781 -23.671875 7.5 -23.453125 C 7.070312 -23.242188 6.570312 -22.878906 6 -22.359375 C 5.425781 -21.847656 4.726562 -21.144531 3.90625 -20.25 C 3.445312 -19.75 3.03125 -19.460938 2.65625 -19.390625 C 2.28125 -19.316406 1.820312 -19.476562 1.28125 -19.875 C 0.601562 -20.375 0.316406 -20.835938 0.421875 -21.265625 C 0.535156 -21.691406 0.734375 -22.085938 1.015625 -22.453125 C 1.835938 -23.453125 2.664062 -24.351562 3.5 -25.15625 C 4.34375 -25.957031 5.273438 -26.597656 6.296875 -27.078125 C 7.316406 -27.566406 8.488281 -27.8125 9.8125 -27.8125 C 11.125 -27.8125 12.09375 -27.566406 12.71875 -27.078125 C 13.34375 -26.597656 13.726562 -25.972656 13.875 -25.203125 C 14.019531 -24.441406 14.019531 -23.628906 13.875 -22.765625 C 13.726562 -21.910156 13.550781 -21.125 13.34375 -20.40625 L 12.265625 -17.203125 C 13.378906 -18.910156 14.515625 -20.414062 15.671875 -21.71875 C 16.828125 -23.03125 17.992188 -24.140625 19.171875 -25.046875 C 20.359375 -25.953125 21.554688 -26.640625 22.765625 -27.109375 C 23.984375 -27.578125 25.195312 -27.8125 26.40625 -27.8125 C 28.050781 -27.8125 29.320312 -27.40625 30.21875 -26.59375 C 31.113281 -25.789062 31.613281 -24.601562 31.71875 -23.03125 C 31.820312 -21.46875 31.484375 -19.523438 30.703125 -17.203125 L 26.6875 -5.578125 C 26.46875 -4.890625 26.347656 -4.382812 26.328125 -4.0625 C 26.316406 -3.75 26.378906 -3.535156 26.515625 -3.421875 C 26.660156 -3.316406 26.820312 -3.265625 27 -3.265625 C 27.363281 -3.265625 27.734375 -3.378906 28.109375 -3.609375 C 28.484375 -3.847656 28.890625 -4.1875 29.328125 -4.625 C 29.773438 -5.070312 30.25 -5.601562 30.75 -6.21875 C 31.039062 -6.570312 31.328125 -6.773438 31.609375 -6.828125 C 31.898438 -6.878906 32.238281 -6.765625 32.625 -6.484375 C 33.195312 -6.128906 33.546875 -5.769531 33.671875 -5.40625 C 33.796875 -5.050781 33.753906 -4.695312 33.546875 -4.34375 C 33.222656 -3.800781 32.710938 -3.117188 32.015625 -2.296875 C 31.316406 -1.484375 30.445312 -0.765625 29.40625 -0.140625 C 28.375 0.484375 27.21875 0.796875 25.9375 0.796875 C 24.613281 0.796875 23.640625 0.503906 23.015625 -0.078125 C 22.390625 -0.671875 22.019531 -1.410156 21.90625 -2.296875 C 21.800781 -3.191406 21.847656 -4.140625 22.046875 -5.140625 C 22.242188 -6.140625 22.484375 -7.066406 22.765625 -7.921875 L 26.40625 -18.4375 C 26.726562 -19.363281 26.9375 -20.207031 27.03125 -20.96875 C 27.125 -21.738281 27 -22.351562 26.65625 -22.8125 C 26.3125 -23.28125 25.640625 -23.515625 24.640625 -23.515625 C 23.460938 -23.515625 22.148438 -22.992188 20.703125 -21.953125 C 19.253906 -20.921875 17.769531 -19.476562 16.25 -17.625 C 14.738281 -15.769531 13.234375 -13.5625 11.734375 -11 C 10.234375 -8.445312 8.835938 -5.640625 7.546875 -2.578125 L 6.90625 -0.59375 C 6.769531 -0.125 6.515625 0.222656 6.140625 0.453125 C 5.765625 0.679688 5.164062 0.796875 4.34375 0.796875 Z M 4.34375 0.796875 "/></g></g></g><g fill="#0a0a0a" fill-opacity="1"><g transform="translate(829.997721, 767.17801)"><g><path d="M -9.859375 0.90625 C -10.535156 0.90625 -10.972656 0.695312 -11.171875 0.28125 C -11.367188 -0.125 -11.394531 -0.582031 -11.25 -1.09375 C -11.101562 -1.613281 -10.816406 -2.078125 -10.390625 -2.484375 C -9.960938 -2.898438 -9.460938 -3.109375 -8.890625 -3.109375 C -8.066406 -3.109375 -7.003906 -3.4375 -5.703125 -4.09375 C -4.398438 -4.757812 -2.9375 -5.695312 -1.3125 -6.90625 C 0.3125 -8.125 2.023438 -9.550781 3.828125 -11.1875 C 5.628906 -12.832031 7.46875 -14.628906 9.34375 -16.578125 C 11.21875 -18.523438 13.039062 -20.5625 14.8125 -22.6875 C 16.582031 -24.8125 18.234375 -26.960938 19.765625 -29.140625 C 21.304688 -31.328125 22.65625 -33.5 23.8125 -35.65625 C 24.976562 -37.8125 25.890625 -39.878906 26.546875 -41.859375 C 27.210938 -43.847656 27.546875 -45.679688 27.546875 -47.359375 C 27.546875 -47.898438 27.765625 -48.300781 28.203125 -48.5625 C 28.648438 -48.832031 29.175781 -48.96875 29.78125 -48.96875 C 30.394531 -48.96875 30.925781 -48.832031 31.375 -48.5625 C 31.820312 -48.300781 32.046875 -47.898438 32.046875 -47.359375 C 32.046875 -45.609375 31.675781 -43.671875 30.9375 -41.546875 C 30.207031 -39.421875 29.195312 -37.195312 27.90625 -34.875 C 26.625 -32.550781 25.113281 -30.191406 23.375 -27.796875 C 21.644531 -25.410156 19.789062 -23.035156 17.8125 -20.671875 C 15.832031 -18.316406 13.785156 -16.078125 11.671875 -13.953125 C 9.566406 -11.828125 7.46875 -9.863281 5.375 -8.0625 C 3.289062 -6.257812 1.304688 -4.675781 -0.578125 -3.3125 C -2.472656 -1.957031 -4.21875 -0.914062 -5.8125 -0.1875 C -7.40625 0.539062 -8.753906 0.90625 -9.859375 0.90625 Z M 7.828125 0.796875 C 6.503906 0.796875 5.535156 0.503906 4.921875 -0.078125 C 4.316406 -0.671875 3.960938 -1.410156 3.859375 -2.296875 C 3.753906 -3.191406 3.804688 -4.140625 4.015625 -5.140625 C 4.234375 -6.140625 4.46875 -7.066406 4.71875 -7.921875 L 16.078125 -42.640625 C 17.398438 -46.828125 18.875 -49.863281 20.5 -51.75 C 22.125 -53.644531 24.078125 -54.59375 26.359375 -54.59375 C 27.503906 -54.59375 28.492188 -54.289062 29.328125 -53.6875 C 30.171875 -53.082031 30.832031 -52.242188 31.3125 -51.171875 C 31.800781 -50.097656 32.046875 -48.828125 32.046875 -47.359375 C 32.046875 -46.679688 31.820312 -46.179688 31.375 -45.859375 C 30.925781 -45.535156 30.394531 -45.375 29.78125 -45.375 C 29.175781 -45.375 28.648438 -45.535156 28.203125 -45.859375 C 27.765625 -46.179688 27.546875 -46.679688 27.546875 -47.359375 C 27.546875 -47.972656 27.488281 -48.492188 27.375 -48.921875 C 27.269531 -49.347656 27.09375 -49.6875 26.84375 -49.9375 C 26.59375 -50.1875 26.21875 -50.3125 25.71875 -50.3125 C 25.144531 -50.3125 24.597656 -50.066406 24.078125 -49.578125 C 23.566406 -49.097656 23.015625 -48.222656 22.421875 -46.953125 C 21.828125 -45.691406 21.140625 -43.898438 20.359375 -41.578125 L 8.625 -5.515625 C 8.445312 -4.867188 8.335938 -4.382812 8.296875 -4.0625 C 8.265625 -3.75 8.3125 -3.535156 8.4375 -3.421875 C 8.5625 -3.316406 8.710938 -3.265625 8.890625 -3.265625 C 9.253906 -3.265625 9.628906 -3.378906 10.015625 -3.609375 C 10.410156 -3.847656 10.820312 -4.1875 11.25 -4.625 C 11.675781 -5.070312 12.140625 -5.601562 12.640625 -6.21875 C 12.929688 -6.570312 13.21875 -6.773438 13.5 -6.828125 C 13.789062 -6.878906 14.128906 -6.765625 14.515625 -6.484375 C 15.128906 -6.128906 15.488281 -5.769531 15.59375 -5.40625 C 15.695312 -5.050781 15.660156 -4.695312 15.484375 -4.34375 C 15.160156 -3.800781 14.640625 -3.117188 13.921875 -2.296875 C 13.210938 -1.484375 12.347656 -0.765625 11.328125 -0.140625 C 10.316406 0.484375 9.148438 0.796875 7.828125 0.796875 Z M 7.828125 0.796875 "/></g></g></g><g fill="#0a0a0a" fill-opacity="1"><g transform="translate(851.107525, 767.17801)"><g><path d="M 6.375 0.796875 C 4.375 0.796875 3.125 0.00390625 2.625 -1.578125 C 2.125 -3.171875 2.375 -5.484375 3.375 -8.515625 L 9.0625 -25.875 C 9.3125 -26.59375 9.601562 -27.054688 9.9375 -27.265625 C 10.28125 -27.484375 10.789062 -27.59375 11.46875 -27.59375 C 12.570312 -27.59375 13.273438 -27.421875 13.578125 -27.078125 C 13.878906 -26.742188 13.90625 -26.21875 13.65625 -25.5 L 7.125 -5.515625 C 6.875 -4.765625 6.785156 -4.203125 6.859375 -3.828125 C 6.929688 -3.453125 7.195312 -3.265625 7.65625 -3.265625 C 7.976562 -3.265625 8.300781 -3.367188 8.625 -3.578125 C 8.945312 -3.796875 9.3125 -4.117188 9.71875 -4.546875 C 10.132812 -4.984375 10.628906 -5.539062 11.203125 -6.21875 C 11.484375 -6.570312 11.765625 -6.773438 12.046875 -6.828125 C 12.335938 -6.878906 12.679688 -6.765625 13.078125 -6.484375 C 13.648438 -6.128906 14 -5.769531 14.125 -5.40625 C 14.25 -5.050781 14.203125 -4.695312 13.984375 -4.34375 C 13.234375 -3.164062 12.457031 -2.191406 11.65625 -1.421875 C 10.851562 -0.648438 10.015625 -0.0859375 9.140625 0.265625 C 8.265625 0.617188 7.34375 0.796875 6.375 0.796875 Z M 14.78125 -35.84375 C 14.070312 -35.84375 13.46875 -36.070312 12.96875 -36.53125 C 12.46875 -37 12.21875 -37.679688 12.21875 -38.578125 C 12.21875 -39.535156 12.53125 -40.441406 13.15625 -41.296875 C 13.78125 -42.160156 14.753906 -42.59375 16.078125 -42.59375 C 16.828125 -42.59375 17.453125 -42.367188 17.953125 -41.921875 C 18.453125 -41.472656 18.703125 -40.785156 18.703125 -39.859375 C 18.703125 -38.898438 18.390625 -37.988281 17.765625 -37.125 C 17.140625 -36.269531 16.144531 -35.84375 14.78125 -35.84375 Z M 14.78125 -35.84375 "/></g></g></g><g fill="#0a0a0a" fill-opacity="1"><g transform="translate(867.180979, 767.17801)"><g><path d="M 4.34375 0.796875 C 3.769531 0.796875 3.238281 0.671875 2.75 0.421875 C 2.269531 0.171875 2.140625 -0.289062 2.359375 -0.96875 L 9.328125 -22.5 C 9.429688 -22.851562 9.425781 -23.15625 9.3125 -23.40625 C 9.207031 -23.65625 8.976562 -23.78125 8.625 -23.78125 C 8.300781 -23.78125 7.925781 -23.671875 7.5 -23.453125 C 7.070312 -23.242188 6.570312 -22.878906 6 -22.359375 C 5.425781 -21.847656 4.726562 -21.144531 3.90625 -20.25 C 3.445312 -19.75 3.03125 -19.460938 2.65625 -19.390625 C 2.28125 -19.316406 1.820312 -19.476562 1.28125 -19.875 C 0.601562 -20.375 0.316406 -20.835938 0.421875 -21.265625 C 0.535156 -21.691406 0.734375 -22.085938 1.015625 -22.453125 C 1.835938 -23.453125 2.664062 -24.351562 3.5 -25.15625 C 4.34375 -25.957031 5.273438 -26.597656 6.296875 -27.078125 C 7.316406 -27.566406 8.488281 -27.8125 9.8125 -27.8125 C 11.125 -27.8125 12.09375 -27.566406 12.71875 -27.078125 C 13.34375 -26.597656 13.726562 -25.972656 13.875 -25.203125 C 14.019531 -24.441406 14.019531 -23.628906 13.875 -22.765625 C 13.726562 -21.910156 13.550781 -21.125 13.34375 -20.40625 L 12.265625 -17.203125 C 13.378906 -18.910156 14.515625 -20.414062 15.671875 -21.71875 C 16.828125 -23.03125 17.992188 -24.140625 19.171875 -25.046875 C 20.359375 -25.953125 21.554688 -26.640625 22.765625 -27.109375 C 23.984375 -27.578125 25.195312 -27.8125 26.40625 -27.8125 C 28.050781 -27.8125 29.320312 -27.40625 30.21875 -26.59375 C 31.113281 -25.789062 31.613281 -24.601562 31.71875 -23.03125 C 31.820312 -21.46875 31.484375 -19.523438 30.703125 -17.203125 L 26.6875 -5.578125 C 26.46875 -4.890625 26.347656 -4.382812 26.328125 -4.0625 C 26.316406 -3.75 26.378906 -3.535156 26.515625 -3.421875 C 26.660156 -3.316406 26.820312 -3.265625 27 -3.265625 C 27.363281 -3.265625 27.734375 -3.378906 28.109375 -3.609375 C 28.484375 -3.847656 28.890625 -4.1875 29.328125 -4.625 C 29.773438 -5.070312 30.25 -5.601562 30.75 -6.21875 C 31.039062 -6.570312 31.328125 -6.773438 31.609375 -6.828125 C 31.898438 -6.878906 32.238281 -6.765625 32.625 -6.484375 C 33.195312 -6.128906 33.546875 -5.769531 33.671875 -5.40625 C 33.796875 -5.050781 33.753906 -4.695312 33.546875 -4.34375 C 33.222656 -3.800781 32.710938 -3.117188 32.015625 -2.296875 C 31.316406 -1.484375 30.445312 -0.765625 29.40625 -0.140625 C 28.375 0.484375 27.21875 0.796875 25.9375 0.796875 C 24.613281 0.796875 23.640625 0.503906 23.015625 -0.078125 C 22.390625 -0.671875 22.019531 -1.410156 21.90625 -2.296875 C 21.800781 -3.191406 21.847656 -4.140625 22.046875 -5.140625 C 22.242188 -6.140625 22.484375 -7.066406 22.765625 -7.921875 L 26.40625 -18.4375 C 26.726562 -19.363281 26.9375 -20.207031 27.03125 -20.96875 C 27.125 -21.738281 27 -22.351562 26.65625 -22.8125 C 26.3125 -23.28125 25.640625 -23.515625 24.640625 -23.515625 C 23.460938 -23.515625 22.148438 -22.992188 20.703125 -21.953125 C 19.253906 -20.921875 17.769531 -19.476562 16.25 -17.625 C 14.738281 -15.769531 13.234375 -13.5625 11.734375 -11 C 10.234375 -8.445312 8.835938 -5.640625 7.546875 -2.578125 L 6.90625 -0.59375 C 6.769531 -0.125 6.515625 0.222656 6.140625 0.453125 C 5.765625 0.679688 5.164062 0.796875 4.34375 0.796875 Z M 4.34375 0.796875 "/></g></g></g><g fill="#0a0a0a" fill-opacity="1"><g transform="translate(903.13195, 767.17801)"><g><path d="M 12.375 0.90625 C 11.050781 0.90625 9.867188 0.695312 8.828125 0.28125 C 7.796875 -0.125 6.882812 -0.679688 6.09375 -1.390625 C 5.3125 -2.109375 4.660156 -2.957031 4.140625 -3.9375 C 3.628906 -4.914062 3.238281 -5.976562 2.96875 -7.125 C 2.707031 -8.269531 2.578125 -9.445312 2.578125 -10.65625 C 2.578125 -11.976562 2.71875 -13.40625 3 -14.9375 C 3.28125 -16.476562 3.734375 -18.007812 4.359375 -19.53125 C 4.984375 -21.050781 5.796875 -22.4375 6.796875 -23.6875 C 7.796875 -24.9375 8.992188 -25.9375 10.390625 -26.6875 C 11.785156 -27.4375 13.410156 -27.8125 15.265625 -27.8125 C 16.335938 -27.8125 17.320312 -27.585938 18.21875 -27.140625 C 19.113281 -26.691406 19.816406 -26.046875 20.328125 -25.203125 C 20.847656 -24.367188 21.109375 -23.363281 21.109375 -22.1875 C 21.109375 -20.570312 20.597656 -18.878906 19.578125 -17.109375 C 18.566406 -15.347656 17.21875 -13.597656 15.53125 -11.859375 C 13.851562 -10.128906 11.976562 -8.515625 9.90625 -7.015625 C 7.832031 -5.484375 5.679688 -4.117188 3.453125 -2.921875 C 1.222656 -1.722656 -0.914062 -0.785156 -2.96875 -0.109375 C -5.019531 0.566406 -6.832031 0.90625 -8.40625 0.90625 C -8.90625 0.90625 -9.28125 0.695312 -9.53125 0.28125 C -9.78125 -0.125 -9.878906 -0.582031 -9.828125 -1.09375 C -9.773438 -1.613281 -9.550781 -2.078125 -9.15625 -2.484375 C -8.769531 -2.898438 -8.203125 -3.109375 -7.453125 -3.109375 C -6.304688 -3.109375 -4.882812 -3.421875 -3.1875 -4.046875 C -1.488281 -4.671875 0.3125 -5.519531 2.21875 -6.59375 C 4.132812 -7.664062 5.96875 -8.863281 7.71875 -10.1875 C 9.320312 -11.363281 10.765625 -12.578125 12.046875 -13.828125 C 13.335938 -15.078125 14.363281 -16.304688 15.125 -17.515625 C 15.894531 -18.734375 16.28125 -19.859375 16.28125 -20.890625 C 16.28125 -21.710938 16.101562 -22.351562 15.75 -22.8125 C 15.394531 -23.28125 14.859375 -23.515625 14.140625 -23.515625 C 13.035156 -23.515625 12.050781 -23.078125 11.1875 -22.203125 C 10.332031 -21.328125 9.609375 -20.226562 9.015625 -18.90625 C 8.429688 -17.59375 7.992188 -16.203125 7.703125 -14.734375 C 7.421875 -13.265625 7.28125 -11.941406 7.28125 -10.765625 C 7.28125 -9.765625 7.40625 -8.816406 7.65625 -7.921875 C 7.90625 -7.035156 8.28125 -6.25 8.78125 -5.5625 C 9.28125 -4.882812 9.914062 -4.347656 10.6875 -3.953125 C 11.457031 -3.566406 12.359375 -3.375 13.390625 -3.375 C 14.503906 -3.375 15.585938 -3.613281 16.640625 -4.09375 C 17.691406 -4.582031 18.707031 -5.226562 19.6875 -6.03125 C 20.664062 -6.832031 21.585938 -7.695312 22.453125 -8.625 C 22.878906 -9.125 23.378906 -9.300781 23.953125 -9.15625 C 24.523438 -9.019531 24.988281 -8.753906 25.34375 -8.359375 C 25.695312 -7.960938 25.898438 -7.550781 25.953125 -7.125 C 26.003906 -6.695312 25.816406 -6.210938 25.390625 -5.671875 C 24.035156 -3.960938 22.632812 -2.632812 21.1875 -1.6875 C 19.738281 -0.738281 18.273438 -0.0703125 16.796875 0.3125 C 15.316406 0.707031 13.84375 0.90625 12.375 0.90625 Z M 12.375 0.90625 "/></g></g></g><g fill="#0a0a0a" fill-opacity="1"><g transform="translate(926.92829, 767.17801)"><g/></g></g><g fill="#0a0a0a" fill-opacity="1"><g transform="translate(959.084537, 767.17801)"><g><path d="M 29.796875 0.59375 C 27.929688 0.59375 26.132812 0.328125 24.40625 -0.203125 C 22.675781 -0.742188 20.988281 -1.414062 19.34375 -2.21875 C 17.695312 -3.019531 16.132812 -3.832031 14.65625 -4.65625 C 13.175781 -5.476562 11.773438 -6.15625 10.453125 -6.6875 C 9.128906 -7.226562 7.894531 -7.5 6.75 -7.5 C 6.175781 -7.5 5.691406 -7.347656 5.296875 -7.046875 C 4.910156 -6.742188 4.71875 -6.285156 4.71875 -5.671875 C 4.71875 -5.109375 5.03125 -4.582031 5.65625 -4.09375 C 6.28125 -3.613281 7.070312 -3.375 8.03125 -3.375 C 8.71875 -3.375 9.363281 -3.550781 9.96875 -3.90625 C 10.570312 -4.269531 11.132812 -4.867188 11.65625 -5.703125 C 12.175781 -6.546875 12.664062 -7.664062 13.125 -9.0625 L 21 -32.515625 C 22.175781 -36.085938 23.5 -39.234375 24.96875 -41.953125 C 26.4375 -44.671875 28.007812 -46.945312 29.6875 -48.78125 C 31.363281 -50.625 33.164062 -52.015625 35.09375 -52.953125 C 37.019531 -53.898438 39.035156 -54.375 41.140625 -54.375 C 42.859375 -54.375 44.382812 -54.046875 45.71875 -53.390625 C 47.0625 -52.734375 48.117188 -51.8125 48.890625 -50.625 C 49.660156 -49.445312 50.046875 -48.09375 50.046875 -46.5625 C 50.046875 -44.59375 49.609375 -42.773438 48.734375 -41.109375 C 47.859375 -39.453125 46.625 -38.007812 45.03125 -36.78125 C 43.4375 -35.550781 41.566406 -34.601562 39.421875 -33.9375 C 37.285156 -33.28125 34.953125 -32.953125 32.421875 -32.953125 C 29.671875 -32.953125 27.132812 -33.128906 24.8125 -33.484375 C 22.488281 -33.835938 20.265625 -34.414062 18.140625 -35.21875 C 16.015625 -36.03125 13.863281 -37.078125 11.6875 -38.359375 C 11.144531 -38.679688 10.847656 -39.09375 10.796875 -39.59375 C 10.742188 -40.09375 10.914062 -40.664062 11.3125 -41.3125 C 11.625 -41.882812 12.003906 -42.210938 12.453125 -42.296875 C 12.898438 -42.390625 13.394531 -42.273438 13.9375 -41.953125 C 15.6875 -40.984375 17.503906 -40.148438 19.390625 -39.453125 C 21.285156 -38.765625 23.304688 -38.238281 25.453125 -37.875 C 27.597656 -37.519531 29.9375 -37.34375 32.46875 -37.34375 C 34.289062 -37.34375 35.96875 -37.570312 37.5 -38.03125 C 39.039062 -38.5 40.378906 -39.132812 41.515625 -39.9375 C 42.660156 -40.738281 43.546875 -41.6875 44.171875 -42.78125 C 44.796875 -43.875 45.109375 -45.082031 45.109375 -46.40625 C 45.109375 -47.113281 44.945312 -47.726562 44.625 -48.25 C 44.300781 -48.769531 43.816406 -49.160156 43.171875 -49.421875 C 42.535156 -49.691406 41.804688 -49.828125 40.984375 -49.828125 C 39.410156 -49.828125 37.910156 -49.425781 36.484375 -48.625 C 35.054688 -47.820312 33.679688 -46.640625 32.359375 -45.078125 C 31.035156 -43.523438 29.789062 -41.601562 28.625 -39.3125 C 27.46875 -37.03125 26.375 -34.375 25.34375 -31.34375 L 17.6875 -8.515625 C 16.863281 -6.085938 15.957031 -4.1875 14.96875 -2.8125 C 13.988281 -1.4375 12.910156 -0.472656 11.734375 0.078125 C 10.554688 0.628906 9.269531 0.90625 7.875 0.90625 C 6.34375 0.90625 4.957031 0.59375 3.71875 -0.03125 C 2.488281 -0.65625 1.523438 -1.46875 0.828125 -2.46875 C 0.128906 -3.46875 -0.21875 -4.519531 -0.21875 -5.625 C -0.21875 -6.90625 0.0664062 -8 0.640625 -8.90625 C 1.210938 -9.820312 1.988281 -10.53125 2.96875 -11.03125 C 3.957031 -11.53125 5.054688 -11.78125 6.265625 -11.78125 C 7.867188 -11.78125 9.457031 -11.519531 11.03125 -11 C 12.601562 -10.488281 14.175781 -9.835938 15.75 -9.046875 C 17.320312 -8.265625 18.898438 -7.472656 20.484375 -6.671875 C 22.078125 -5.867188 23.6875 -5.207031 25.3125 -4.6875 C 26.9375 -4.164062 28.609375 -3.90625 30.328125 -3.90625 C 32.285156 -3.90625 34.03125 -4.269531 35.5625 -5 C 37.101562 -5.738281 38.515625 -6.796875 39.796875 -8.171875 C 41.085938 -9.546875 42.304688 -11.195312 43.453125 -13.125 C 43.773438 -13.726562 44.1875 -14.066406 44.6875 -14.140625 C 45.1875 -14.210938 45.773438 -14.085938 46.453125 -13.765625 C 47.023438 -13.410156 47.390625 -13.019531 47.546875 -12.59375 C 47.710938 -12.164062 47.648438 -11.679688 47.359375 -11.140625 C 45.753906 -8.429688 44.078125 -6.21875 42.328125 -4.5 C 40.578125 -2.78125 38.675781 -1.5 36.625 -0.65625 C 34.570312 0.175781 32.296875 0.59375 29.796875 0.59375 Z M 29.796875 0.59375 "/></g></g></g><g fill="#0a0a0a" fill-opacity="1"><g transform="translate(1007.465644, 767.17801)"><g><path d="M 12.375 0.90625 C 11.050781 0.90625 9.867188 0.695312 8.828125 0.28125 C 7.796875 -0.125 6.882812 -0.679688 6.09375 -1.390625 C 5.3125 -2.109375 4.660156 -2.957031 4.140625 -3.9375 C 3.628906 -4.914062 3.238281 -5.976562 2.96875 -7.125 C 2.707031 -8.269531 2.578125 -9.445312 2.578125 -10.65625 C 2.578125 -11.976562 2.71875 -13.40625 3 -14.9375 C 3.28125 -16.476562 3.734375 -18.007812 4.359375 -19.53125 C 4.984375 -21.050781 5.796875 -22.4375 6.796875 -23.6875 C 7.796875 -24.9375 8.992188 -25.9375 10.390625 -26.6875 C 11.785156 -27.4375 13.410156 -27.8125 15.265625 -27.8125 C 16.335938 -27.8125 17.320312 -27.585938 18.21875 -27.140625 C 19.113281 -26.691406 19.816406 -26.046875 20.328125 -25.203125 C 20.847656 -24.367188 21.109375 -23.363281 21.109375 -22.1875 C 21.109375 -20.570312 20.597656 -18.878906 19.578125 -17.109375 C 18.566406 -15.347656 17.21875 -13.597656 15.53125 -11.859375 C 13.851562 -10.128906 11.976562 -8.515625 9.90625 -7.015625 C 7.832031 -5.484375 5.679688 -4.117188 3.453125 -2.921875 C 1.222656 -1.722656 -0.914062 -0.785156 -2.96875 -0.109375 C -5.019531 0.566406 -6.832031 0.90625 -8.40625 0.90625 C -8.90625 0.90625 -9.28125 0.695312 -9.53125 0.28125 C -9.78125 -0.125 -9.878906 -0.582031 -9.828125 -1.09375 C -9.773438 -1.613281 -9.550781 -2.078125 -9.15625 -2.484375 C -8.769531 -2.898438 -8.203125 -3.109375 -7.453125 -3.109375 C -6.304688 -3.109375 -4.882812 -3.421875 -3.1875 -4.046875 C -1.488281 -4.671875 0.3125 -5.519531 2.21875 -6.59375 C 4.132812 -7.664062 5.96875 -8.863281 7.71875 -10.1875 C 9.320312 -11.363281 10.765625 -12.578125 12.046875 -13.828125 C 13.335938 -15.078125 14.363281 -16.304688 15.125 -17.515625 C 15.894531 -18.734375 16.28125 -19.859375 16.28125 -20.890625 C 16.28125 -21.710938 16.101562 -22.351562 15.75 -22.8125 C 15.394531 -23.28125 14.859375 -23.515625 14.140625 -23.515625 C 13.035156 -23.515625 12.050781 -23.078125 11.1875 -22.203125 C 10.332031 -21.328125 9.609375 -20.226562 9.015625 -18.90625 C 8.429688 -17.59375 7.992188 -16.203125 7.703125 -14.734375 C 7.421875 -13.265625 7.28125 -11.941406 7.28125 -10.765625 C 7.28125 -9.765625 7.40625 -8.816406 7.65625 -7.921875 C 7.90625 -7.035156 8.28125 -6.25 8.78125 -5.5625 C 9.28125 -4.882812 9.914062 -4.347656 10.6875 -3.953125 C 11.457031 -3.566406 12.359375 -3.375 13.390625 -3.375 C 14.503906 -3.375 15.585938 -3.613281 16.640625 -4.09375 C 17.691406 -4.582031 18.707031 -5.226562 19.6875 -6.03125 C 20.664062 -6.832031 21.585938 -7.695312 22.453125 -8.625 C 22.878906 -9.125 23.378906 -9.300781 23.953125 -9.15625 C 24.523438 -9.019531 24.988281 -8.753906 25.34375 -8.359375 C 25.695312 -7.960938 25.898438 -7.550781 25.953125 -7.125 C 26.003906 -6.695312 25.816406 -6.210938 25.390625 -5.671875 C 24.035156 -3.960938 22.632812 -2.632812 21.1875 -1.6875 C 19.738281 -0.738281 18.273438 -0.0703125 16.796875 0.3125 C 15.316406 0.707031 13.84375 0.90625 12.375 0.90625 Z M 12.375 0.90625 "/></g></g></g><g fill="#0a0a0a" fill-opacity="1"><g transform="translate(1031.254361, 767.17801)"><g><path d="M 7.921875 0.90625 C 6.710938 0.90625 5.648438 0.585938 4.734375 -0.046875 C 3.828125 -0.691406 3.125 -1.601562 2.625 -2.78125 C 2.125 -3.957031 1.875 -5.351562 1.875 -6.96875 C 1.875 -8.613281 2.125 -10.378906 2.625 -12.265625 C 3.125 -14.160156 3.875 -16.019531 4.875 -17.84375 C 5.875 -19.664062 7.097656 -21.328125 8.546875 -22.828125 C 9.992188 -24.328125 11.644531 -25.53125 13.5 -26.4375 C 15.351562 -27.351562 17.425781 -27.8125 19.71875 -27.8125 C 20.71875 -27.8125 21.785156 -27.675781 22.921875 -27.40625 C 24.066406 -27.132812 25.175781 -26.75 26.25 -26.25 L 26.3125 -26.46875 C 26.488281 -26.96875 26.753906 -27.28125 27.109375 -27.40625 C 27.460938 -27.53125 27.945312 -27.59375 28.5625 -27.59375 C 29.664062 -27.59375 30.367188 -27.421875 30.671875 -27.078125 C 30.972656 -26.742188 31 -26.21875 30.75 -25.5 L 24.0625 -5.515625 C 23.84375 -4.867188 23.722656 -4.382812 23.703125 -4.0625 C 23.691406 -3.75 23.753906 -3.535156 23.890625 -3.421875 C 24.035156 -3.316406 24.195312 -3.265625 24.375 -3.265625 C 24.726562 -3.265625 25.09375 -3.378906 25.46875 -3.609375 C 25.84375 -3.847656 26.253906 -4.1875 26.703125 -4.625 C 27.148438 -5.070312 27.625 -5.601562 28.125 -6.21875 C 28.414062 -6.570312 28.703125 -6.773438 28.984375 -6.828125 C 29.273438 -6.878906 29.613281 -6.765625 30 -6.484375 C 30.570312 -6.128906 30.921875 -5.769531 31.046875 -5.40625 C 31.171875 -5.050781 31.144531 -4.695312 30.96875 -4.34375 C 30.644531 -3.800781 30.125 -3.117188 29.40625 -2.296875 C 28.695312 -1.484375 27.832031 -0.765625 26.8125 -0.140625 C 25.789062 0.484375 24.625 0.796875 23.3125 0.796875 C 21.988281 0.796875 21.015625 0.503906 20.390625 -0.078125 C 19.765625 -0.671875 19.394531 -1.410156 19.28125 -2.296875 C 19.175781 -3.191406 19.222656 -4.140625 19.421875 -5.140625 C 19.617188 -6.140625 19.859375 -7.066406 20.140625 -7.921875 C 20.210938 -7.992188 20.257812 -8.070312 20.28125 -8.15625 C 20.300781 -8.25 20.328125 -8.351562 20.359375 -8.46875 C 18.859375 -6.351562 17.382812 -4.597656 15.9375 -3.203125 C 14.488281 -1.816406 13.09375 -0.785156 11.75 -0.109375 C 10.414062 0.566406 9.140625 0.90625 7.921875 0.90625 Z M 6.75 -7.828125 C 6.75 -6.929688 6.851562 -6.144531 7.0625 -5.46875 C 7.28125 -4.789062 7.59375 -4.269531 8 -3.90625 C 8.414062 -3.550781 8.894531 -3.375 9.4375 -3.375 C 10.6875 -3.375 12.113281 -4.039062 13.71875 -5.375 C 15.320312 -6.71875 17.023438 -8.675781 18.828125 -11.25 C 20.628906 -13.820312 22.476562 -16.96875 24.375 -20.6875 L 24.96875 -22.453125 C 23.820312 -22.910156 22.738281 -23.210938 21.71875 -23.359375 C 20.707031 -23.503906 19.789062 -23.578125 18.96875 -23.578125 C 17.425781 -23.578125 16.015625 -23.21875 14.734375 -22.5 C 13.453125 -21.789062 12.316406 -20.851562 11.328125 -19.6875 C 10.347656 -18.53125 9.519531 -17.242188 8.84375 -15.828125 C 8.164062 -14.421875 7.644531 -13.019531 7.28125 -11.625 C 6.925781 -10.226562 6.75 -8.960938 6.75 -7.828125 Z M 6.75 -7.828125 "/></g></g></g><g fill="#0a0a0a" fill-opacity="1"><g transform="translate(1064.579999, 767.17801)"><g><path d="M -9.703125 0.90625 C -10.378906 0.90625 -10.832031 0.695312 -11.0625 0.28125 C -11.289062 -0.125 -11.351562 -0.582031 -11.25 -1.09375 C -11.144531 -1.613281 -10.878906 -2.078125 -10.453125 -2.484375 C -10.023438 -2.898438 -9.46875 -3.109375 -8.78125 -3.109375 C -7.53125 -3.109375 -6.226562 -3.484375 -4.875 -4.234375 C -3.519531 -4.984375 -2.070312 -6.160156 -0.53125 -7.765625 C 1 -9.378906 2.617188 -11.488281 4.328125 -14.09375 C 6.046875 -16.695312 7.890625 -19.859375 9.859375 -23.578125 L 12.8125 -22.125 C 10.664062 -17.800781 8.644531 -14.164062 6.75 -11.21875 C 4.851562 -8.269531 3.003906 -5.90625 1.203125 -4.125 C -0.597656 -2.34375 -2.390625 -1.054688 -4.171875 -0.265625 C -5.960938 0.515625 -7.804688 0.90625 -9.703125 0.90625 Z M 20.359375 0.796875 C 19.035156 0.796875 18.050781 0.535156 17.40625 0.015625 C 16.769531 -0.492188 16.378906 -1.140625 16.234375 -1.921875 C 16.085938 -2.710938 16.085938 -3.535156 16.234375 -4.390625 C 16.378906 -5.242188 16.578125 -6.015625 16.828125 -6.703125 C 17.035156 -7.304688 17.34375 -8.132812 17.75 -9.1875 C 18.164062 -10.238281 18.632812 -11.40625 19.15625 -12.6875 C 19.675781 -13.976562 20.175781 -15.265625 20.65625 -16.546875 C 21.132812 -17.835938 21.535156 -19.019531 21.859375 -20.09375 C 22.140625 -21.164062 22.203125 -21.90625 22.046875 -22.3125 C 21.890625 -22.726562 21.4375 -22.9375 20.6875 -22.9375 C 19.863281 -22.9375 18.984375 -22.765625 18.046875 -22.421875 C 17.117188 -22.078125 16.15625 -21.734375 15.15625 -21.390625 C 14.15625 -21.054688 13.101562 -20.890625 12 -20.890625 C 11.351562 -20.890625 10.796875 -21.15625 10.328125 -21.6875 C 9.867188 -22.226562 9.503906 -22.914062 9.234375 -23.75 C 8.972656 -24.59375 8.84375 -25.476562 8.84375 -26.40625 C 8.84375 -27.164062 8.96875 -27.875 9.21875 -28.53125 C 9.46875 -29.1875 9.867188 -29.726562 10.421875 -30.15625 C 10.972656 -30.59375 11.675781 -30.8125 12.53125 -30.8125 C 13.25 -30.8125 13.820312 -30.578125 14.25 -30.109375 C 14.675781 -29.648438 14.890625 -29.0625 14.890625 -28.34375 C 14.890625 -27.875 14.828125 -27.363281 14.703125 -26.8125 C 14.578125 -26.257812 14.390625 -25.695312 14.140625 -25.125 C 14.503906 -25.125 15.148438 -25.320312 16.078125 -25.71875 C 17.003906 -26.113281 18.082031 -26.503906 19.3125 -26.890625 C 20.539062 -27.285156 21.78125 -27.484375 23.03125 -27.484375 C 24.144531 -27.484375 25.03125 -27.210938 25.6875 -26.671875 C 26.351562 -26.140625 26.753906 -25.328125 26.890625 -24.234375 C 27.035156 -23.148438 26.875 -21.734375 26.40625 -19.984375 C 26.15625 -18.984375 25.78125 -17.820312 25.28125 -16.5 C 24.78125 -15.175781 24.265625 -13.816406 23.734375 -12.421875 C 23.203125 -11.035156 22.691406 -9.734375 22.203125 -8.515625 C 21.722656 -7.304688 21.359375 -6.328125 21.109375 -5.578125 C 20.753906 -4.578125 20.664062 -3.941406 20.84375 -3.671875 C 21.019531 -3.398438 21.269531 -3.265625 21.59375 -3.265625 C 21.945312 -3.265625 22.3125 -3.378906 22.6875 -3.609375 C 23.0625 -3.847656 23.453125 -4.1875 23.859375 -4.625 C 24.273438 -5.070312 24.71875 -5.601562 25.1875 -6.21875 C 25.46875 -6.570312 25.738281 -6.773438 26 -6.828125 C 26.269531 -6.878906 26.625 -6.765625 27.0625 -6.484375 C 27.632812 -6.128906 27.984375 -5.769531 28.109375 -5.40625 C 28.234375 -5.050781 28.203125 -4.695312 28.015625 -4.34375 C 27.703125 -3.800781 27.1875 -3.117188 26.46875 -2.296875 C 25.75 -1.484375 24.878906 -0.765625 23.859375 -0.140625 C 22.847656 0.484375 21.679688 0.796875 20.359375 0.796875 Z M 20.359375 0.796875 "/></g></g></g><g fill="#0a0a0a" fill-opacity="1"><g transform="translate(1095.012412, 767.17801)"><g><path d="M 4.34375 0.796875 C 3.769531 0.796875 3.238281 0.671875 2.75 0.421875 C 2.269531 0.171875 2.140625 -0.289062 2.359375 -0.96875 L 9.328125 -22.5 C 9.429688 -22.851562 9.425781 -23.15625 9.3125 -23.40625 C 9.207031 -23.65625 8.976562 -23.78125 8.625 -23.78125 C 8.300781 -23.78125 7.925781 -23.671875 7.5 -23.453125 C 7.070312 -23.242188 6.570312 -22.878906 6 -22.359375 C 5.425781 -21.847656 4.726562 -21.144531 3.90625 -20.25 C 3.445312 -19.75 3.03125 -19.460938 2.65625 -19.390625 C 2.28125 -19.316406 1.820312 -19.476562 1.28125 -19.875 C 0.601562 -20.375 0.316406 -20.835938 0.421875 -21.265625 C 0.535156 -21.691406 0.734375 -22.085938 1.015625 -22.453125 C 1.835938 -23.453125 2.664062 -24.351562 3.5 -25.15625 C 4.34375 -25.957031 5.273438 -26.597656 6.296875 -27.078125 C 7.316406 -27.566406 8.488281 -27.8125 9.8125 -27.8125 C 11.125 -27.8125 12.09375 -27.566406 12.71875 -27.078125 C 13.34375 -26.597656 13.726562 -25.972656 13.875 -25.203125 C 14.019531 -24.441406 14.019531 -23.628906 13.875 -22.765625 C 13.726562 -21.910156 13.550781 -21.125 13.34375 -20.40625 L 12.265625 -17.203125 C 13.378906 -18.910156 14.515625 -20.414062 15.671875 -21.71875 C 16.828125 -23.03125 17.992188 -24.140625 19.171875 -25.046875 C 20.359375 -25.953125 21.554688 -26.640625 22.765625 -27.109375 C 23.984375 -27.578125 25.195312 -27.8125 26.40625 -27.8125 C 28.050781 -27.8125 29.320312 -27.40625 30.21875 -26.59375 C 31.113281 -25.789062 31.613281 -24.601562 31.71875 -23.03125 C 31.820312 -21.46875 31.484375 -19.523438 30.703125 -17.203125 L 26.6875 -5.578125 C 26.46875 -4.890625 26.347656 -4.382812 26.328125 -4.0625 C 26.316406 -3.75 26.378906 -3.535156 26.515625 -3.421875 C 26.660156 -3.316406 26.820312 -3.265625 27 -3.265625 C 27.363281 -3.265625 27.734375 -3.378906 28.109375 -3.609375 C 28.484375 -3.847656 28.890625 -4.1875 29.328125 -4.625 C 29.773438 -5.070312 30.25 -5.601562 30.75 -6.21875 C 31.039062 -6.570312 31.328125 -6.773438 31.609375 -6.828125 C 31.898438 -6.878906 32.238281 -6.765625 32.625 -6.484375 C 33.195312 -6.128906 33.546875 -5.769531 33.671875 -5.40625 C 33.796875 -5.050781 33.753906 -4.695312 33.546875 -4.34375 C 33.222656 -3.800781 32.710938 -3.117188 32.015625 -2.296875 C 31.316406 -1.484375 30.445312 -0.765625 29.40625 -0.140625 C 28.375 0.484375 27.21875 0.796875 25.9375 0.796875 C 24.613281 0.796875 23.640625 0.503906 23.015625 -0.078125 C 22.390625 -0.671875 22.019531 -1.410156 21.90625 -2.296875 C 21.800781 -3.191406 21.847656 -4.140625 22.046875 -5.140625 C 22.242188 -6.140625 22.484375 -7.066406 22.765625 -7.921875 L 26.40625 -18.4375 C 26.726562 -19.363281 26.9375 -20.207031 27.03125 -20.96875 C 27.125 -21.738281 27 -22.351562 26.65625 -22.8125 C 26.3125 -23.28125 25.640625 -23.515625 24.640625 -23.515625 C 23.460938 -23.515625 22.148438 -22.992188 20.703125 -21.953125 C 19.253906 -20.921875 17.769531 -19.476562 16.25 -17.625 C 14.738281 -15.769531 13.234375 -13.5625 11.734375 -11 C 10.234375 -8.445312 8.835938 -5.640625 7.546875 -2.578125 L 6.90625 -0.59375 C 6.769531 -0.125 6.515625 0.222656 6.140625 0.453125 C 5.765625 0.679688 5.164062 0.796875 4.34375 0.796875 Z M 4.34375 0.796875 "/></g></g></g><g fill="#0a0a0a" fill-opacity="1"><g transform="translate(1130.963382, 767.17801)"><g><path d="M 6.375 0.796875 C 4.375 0.796875 3.125 0.00390625 2.625 -1.578125 C 2.125 -3.171875 2.375 -5.484375 3.375 -8.515625 L 9.0625 -25.875 C 9.3125 -26.59375 9.601562 -27.054688 9.9375 -27.265625 C 10.28125 -27.484375 10.789062 -27.59375 11.46875 -27.59375 C 12.570312 -27.59375 13.273438 -27.421875 13.578125 -27.078125 C 13.878906 -26.742188 13.90625 -26.21875 13.65625 -25.5 L 7.125 -5.515625 C 6.875 -4.765625 6.785156 -4.203125 6.859375 -3.828125 C 6.929688 -3.453125 7.195312 -3.265625 7.65625 -3.265625 C 7.976562 -3.265625 8.300781 -3.367188 8.625 -3.578125 C 8.945312 -3.796875 9.3125 -4.117188 9.71875 -4.546875 C 10.132812 -4.984375 10.628906 -5.539062 11.203125 -6.21875 C 11.484375 -6.570312 11.765625 -6.773438 12.046875 -6.828125 C 12.335938 -6.878906 12.679688 -6.765625 13.078125 -6.484375 C 13.648438 -6.128906 14 -5.769531 14.125 -5.40625 C 14.25 -5.050781 14.203125 -4.695312 13.984375 -4.34375 C 13.234375 -3.164062 12.457031 -2.191406 11.65625 -1.421875 C 10.851562 -0.648438 10.015625 -0.0859375 9.140625 0.265625 C 8.265625 0.617188 7.34375 0.796875 6.375 0.796875 Z M 14.78125 -35.84375 C 14.070312 -35.84375 13.46875 -36.070312 12.96875 -36.53125 C 12.46875 -37 12.21875 -37.679688 12.21875 -38.578125 C 12.21875 -39.535156 12.53125 -40.441406 13.15625 -41.296875 C 13.78125 -42.160156 14.753906 -42.59375 16.078125 -42.59375 C 16.828125 -42.59375 17.453125 -42.367188 17.953125 -41.921875 C 18.453125 -41.472656 18.703125 -40.785156 18.703125 -39.859375 C 18.703125 -38.898438 18.390625 -37.988281 17.765625 -37.125 C 17.140625 -36.269531 16.144531 -35.84375 14.78125 -35.84375 Z M 14.78125 -35.84375 "/></g></g></g><g fill="#0a0a0a" fill-opacity="1"><g transform="translate(1147.036836, 767.17801)"><g><path d="M 4.34375 0.796875 C 3.769531 0.796875 3.238281 0.671875 2.75 0.421875 C 2.269531 0.171875 2.140625 -0.289062 2.359375 -0.96875 L 9.328125 -22.5 C 9.429688 -22.851562 9.425781 -23.15625 9.3125 -23.40625 C 9.207031 -23.65625 8.976562 -23.78125 8.625 -23.78125 C 8.300781 -23.78125 7.925781 -23.671875 7.5 -23.453125 C 7.070312 -23.242188 6.570312 -22.878906 6 -22.359375 C 5.425781 -21.847656 4.726562 -21.144531 3.90625 -20.25 C 3.445312 -19.75 3.03125 -19.460938 2.65625 -19.390625 C 2.28125 -19.316406 1.820312 -19.476562 1.28125 -19.875 C 0.601562 -20.375 0.316406 -20.835938 0.421875 -21.265625 C 0.535156 -21.691406 0.734375 -22.085938 1.015625 -22.453125 C 1.835938 -23.453125 2.664062 -24.351562 3.5 -25.15625 C 4.34375 -25.957031 5.273438 -26.597656 6.296875 -27.078125 C 7.316406 -27.566406 8.488281 -27.8125 9.8125 -27.8125 C 11.125 -27.8125 12.09375 -27.566406 12.71875 -27.078125 C 13.34375 -26.597656 13.726562 -25.972656 13.875 -25.203125 C 14.019531 -24.441406 14.019531 -23.628906 13.875 -22.765625 C 13.726562 -21.910156 13.550781 -21.125 13.34375 -20.40625 L 12.265625 -17.203125 C 13.378906 -18.910156 14.515625 -20.414062 15.671875 -21.71875 C 16.828125 -23.03125 17.992188 -24.140625 19.171875 -25.046875 C 20.359375 -25.953125 21.554688 -26.640625 22.765625 -27.109375 C 23.984375 -27.578125 25.195312 -27.8125 26.40625 -27.8125 C 28.050781 -27.8125 29.320312 -27.40625 30.21875 -26.59375 C 31.113281 -25.789062 31.613281 -24.601562 31.71875 -23.03125 C 31.820312 -21.46875 31.484375 -19.523438 30.703125 -17.203125 L 26.6875 -5.578125 C 26.46875 -4.890625 26.347656 -4.382812 26.328125 -4.0625 C 26.316406 -3.75 26.378906 -3.535156 26.515625 -3.421875 C 26.660156 -3.316406 26.820312 -3.265625 27 -3.265625 C 27.363281 -3.265625 27.734375 -3.378906 28.109375 -3.609375 C 28.484375 -3.847656 28.890625 -4.1875 29.328125 -4.625 C 29.773438 -5.070312 30.25 -5.601562 30.75 -6.21875 C 31.039062 -6.570312 31.328125 -6.773438 31.609375 -6.828125 C 31.898438 -6.878906 32.238281 -6.765625 32.625 -6.484375 C 33.195312 -6.128906 33.546875 -5.769531 33.671875 -5.40625 C 33.796875 -5.050781 33.753906 -4.695312 33.546875 -4.34375 C 33.222656 -3.800781 32.710938 -3.117188 32.015625 -2.296875 C 31.316406 -1.484375 30.445312 -0.765625 29.40625 -0.140625 C 28.375 0.484375 27.21875 0.796875 25.9375 0.796875 C 24.613281 0.796875 23.640625 0.503906 23.015625 -0.078125 C 22.390625 -0.671875 22.019531 -1.410156 21.90625 -2.296875 C 21.800781 -3.191406 21.847656 -4.140625 22.046875 -5.140625 C 22.242188 -6.140625 22.484375 -7.066406 22.765625 -7.921875 L 26.40625 -18.4375 C 26.726562 -19.363281 26.9375 -20.207031 27.03125 -20.96875 C 27.125 -21.738281 27 -22.351562 26.65625 -22.8125 C 26.3125 -23.28125 25.640625 -23.515625 24.640625 -23.515625 C 23.460938 -23.515625 22.148438 -22.992188 20.703125 -21.953125 C 19.253906 -20.921875 17.769531 -19.476562 16.25 -17.625 C 14.738281 -15.769531 13.234375 -13.5625 11.734375 -11 C 10.234375 -8.445312 8.835938 -5.640625 7.546875 -2.578125 L 6.90625 -0.59375 C 6.769531 -0.125 6.515625 0.222656 6.140625 0.453125 C 5.765625 0.679688 5.164062 0.796875 4.34375 0.796875 Z M 4.34375 0.796875 "/></g></g></g><g fill="#0a0a0a" fill-opacity="1"><g transform="translate(1182.987806, 767.17801)"><g><path d="M 20.578125 -0.375 C 21.285156 -0.875 21.992188 -1.347656 22.703125 -1.796875 C 23.421875 -2.242188 24.117188 -2.679688 24.796875 -3.109375 C 25.484375 -3.535156 26.140625 -3.914062 26.765625 -4.25 C 27.390625 -4.59375 27.96875 -4.910156 28.5 -5.203125 C 29.039062 -5.453125 29.46875 -5.453125 29.78125 -5.203125 C 30.101562 -4.953125 30.328125 -4.566406 30.453125 -4.046875 C 30.578125 -3.523438 30.578125 -3.023438 30.453125 -2.546875 C 30.328125 -2.066406 30.085938 -1.734375 29.734375 -1.546875 C 28.984375 -1.191406 28.210938 -0.78125 27.421875 -0.3125 C 26.640625 0.144531 25.828125 0.628906 24.984375 1.140625 C 24.148438 1.660156 23.300781 2.195312 22.4375 2.75 C 21.582031 3.3125 20.726562 3.878906 19.875 4.453125 Z M 4.875 27.8125 C 3.625 27.8125 2.515625 27.5625 1.546875 27.0625 C 0.585938 26.5625 -0.164062 25.878906 -0.71875 25.015625 C -1.269531 24.160156 -1.546875 23.195312 -1.546875 22.125 C -1.546875 20.875 -1.304688 19.632812 -0.828125 18.40625 C -0.347656 17.175781 0.351562 15.9375 1.28125 14.6875 C 2.207031 13.4375 3.375 12.15625 4.78125 10.84375 C 6.195312 9.539062 7.835938 8.175781 9.703125 6.75 C 10.628906 6.070312 11.507812 5.425781 12.34375 4.8125 C 13.1875 4.207031 14.035156 3.609375 14.890625 3.015625 C 15.753906 2.429688 16.648438 1.835938 17.578125 1.234375 L 20.78125 -8.734375 C 19.25 -6.554688 17.722656 -4.75 16.203125 -3.3125 C 14.691406 -1.882812 13.238281 -0.820312 11.84375 -0.125 C 10.445312 0.5625 9.125 0.90625 7.875 0.90625 C 6.695312 0.90625 5.648438 0.585938 4.734375 -0.046875 C 3.828125 -0.691406 3.125 -1.601562 2.625 -2.78125 C 2.125 -3.957031 1.875 -5.351562 1.875 -6.96875 C 1.875 -8.613281 2.125 -10.378906 2.625 -12.265625 C 3.125 -14.160156 3.875 -16.019531 4.875 -17.84375 C 5.875 -19.664062 7.085938 -21.328125 8.515625 -22.828125 C 9.941406 -24.328125 11.59375 -25.53125 13.46875 -26.4375 C 15.34375 -27.351562 17.40625 -27.8125 19.65625 -27.8125 C 20.375 -27.8125 21.109375 -27.75 21.859375 -27.625 C 22.609375 -27.5 23.375 -27.3125 24.15625 -27.0625 C 24.945312 -26.8125 25.695312 -26.503906 26.40625 -26.140625 L 26.578125 -26.46875 C 26.753906 -26.894531 27.019531 -27.1875 27.375 -27.34375 C 27.738281 -27.507812 28.203125 -27.59375 28.765625 -27.59375 C 29.878906 -27.59375 30.585938 -27.421875 30.890625 -27.078125 C 31.191406 -26.742188 31.21875 -26.21875 30.96875 -25.5 L 18.265625 13.390625 C 17.410156 15.960938 16.535156 18.160156 15.640625 19.984375 C 14.753906 21.804688 13.789062 23.296875 12.75 24.453125 C 11.71875 25.617188 10.546875 26.46875 9.234375 27 C 7.929688 27.539062 6.476562 27.8125 4.875 27.8125 Z M 5.671875 23.6875 C 6.535156 23.6875 7.34375 23.441406 8.09375 22.953125 C 8.84375 22.472656 9.546875 21.785156 10.203125 20.890625 C 10.867188 20.003906 11.492188 18.90625 12.078125 17.59375 C 12.671875 16.289062 13.21875 14.820312 13.71875 13.1875 L 15.703125 7.125 C 15.203125 7.445312 14.703125 7.785156 14.203125 8.140625 C 13.703125 8.492188 13.203125 8.847656 12.703125 9.203125 C 12.203125 9.566406 11.703125 9.945312 11.203125 10.34375 C 9.773438 11.488281 8.550781 12.578125 7.53125 13.609375 C 6.507812 14.640625 5.6875 15.601562 5.0625 16.5 C 4.4375 17.394531 3.972656 18.242188 3.671875 19.046875 C 3.367188 19.847656 3.21875 20.625 3.21875 21.375 C 3.21875 21.769531 3.304688 22.144531 3.484375 22.5 C 3.660156 22.851562 3.9375 23.140625 4.3125 23.359375 C 4.6875 23.578125 5.140625 23.6875 5.671875 23.6875 Z M 9.4375 -3.375 C 10.6875 -3.375 12.125 -4.023438 13.75 -5.328125 C 15.375 -6.628906 17.101562 -8.53125 18.9375 -11.03125 C 20.78125 -13.53125 22.644531 -16.601562 24.53125 -20.25 L 25.234375 -22.390625 C 24.015625 -22.890625 22.878906 -23.210938 21.828125 -23.359375 C 20.773438 -23.503906 19.800781 -23.578125 18.90625 -23.578125 C 17.375 -23.578125 15.972656 -23.21875 14.703125 -22.5 C 13.441406 -21.789062 12.316406 -20.851562 11.328125 -19.6875 C 10.347656 -18.53125 9.519531 -17.242188 8.84375 -15.828125 C 8.164062 -14.421875 7.644531 -13.019531 7.28125 -11.625 C 6.925781 -10.226562 6.75 -8.960938 6.75 -7.828125 C 6.75 -6.929688 6.851562 -6.144531 7.0625 -5.46875 C 7.28125 -4.789062 7.59375 -4.269531 8 -3.90625 C 8.414062 -3.550781 8.894531 -3.375 9.4375 -3.375 Z M 9.4375 -3.375 "/></g></g></g><g clip-path="url(#b0c7665a24)"><path fill="#0a0a0a" d="M 719.117188 513.398438 C 719.117188 512.5625 718.4375 511.882812 717.605469 511.882812 L 714.734375 511.882812 L 714.734375 481.09375 C 714.734375 480.261719 714.058594 479.582031 713.222656 479.582031 L 687.894531 479.582031 C 687.058594 479.582031 686.382812 480.261719 686.382812 481.09375 L 686.382812 511.882812 L 683.511719 511.882812 C 682.675781 511.882812 682 512.5625 682 513.398438 L 682 521.492188 C 674.929688 522.25 669.398438 528.253906 669.398438 535.523438 L 669.398438 682.910156 C 669.398438 690.179688 674.929688 696.179688 682 696.9375 L 682 877.625 C 682 877.691406 682.03125 877.746094 682.039062 877.8125 C 682.042969 877.863281 682.027344 877.910156 682.039062 877.960938 L 693.878906 930.167969 L 695.820312 938.734375 C 696.332031 940.996094 698.238281 942.519531 700.558594 942.519531 C 702.878906 942.519531 704.78125 940.996094 705.292969 938.734375 L 707.238281 930.167969 L 719.078125 877.960938 C 719.089844 877.910156 719.074219 877.863281 719.078125 877.8125 C 719.085938 877.75 719.117188 877.691406 719.117188 877.625 Z M 719.117188 513.398438 " fill-opacity="1" fill-rule="nonzero"/></g><path fill="#0a0a0a" d="M 697.625 535.523438 L 697.625 682.910156 C 697.625 690.183594 692.097656 696.183594 685.027344 696.9375 L 685.027344 876.113281 L 716.089844 876.113281 L 716.089844 514.910156 L 685.027344 514.910156 L 685.027344 521.492188 C 692.097656 522.25 697.625 528.25 697.625 535.523438 Z M 697.625 535.523438 " fill-opacity="1" fill-rule="nonzero"/><path fill="#10b981" d="M 715.710938 879.136719 L 704.554688 928.320312 L 696.5625 928.320312 L 685.40625 879.136719 Z M 711.707031 482.609375 L 689.40625 482.609375 L 689.40625 511.625 L 711.707031 511.625 Z M 711.707031 482.609375 " fill-opacity="1" fill-rule="nonzero"/><path fill="#10b981" d="M 698.773438 938.0625 L 697.25 931.34375 L 703.871094 931.34375 L 702.347656 938.0625 C 702.105469 939.117188 701.269531 939.492188 700.558594 939.492188 C 699.851562 939.492188 699.011719 939.117188 698.773438 938.0625 Z M 683.511719 694 C 689.628906 694 694.601562 689.023438 694.601562 682.910156 L 694.601562 535.523438 C 694.601562 529.40625 689.628906 524.433594 683.515625 524.433594 C 677.402344 524.433594 672.425781 529.410156 672.425781 535.523438 L 672.425781 682.910156 C 672.425781 689.023438 677.398438 694 683.511719 694 Z M 683.511719 694 " fill-opacity="1" fill-rule="nonzero"/><g clip-path="url(#e173467b00)"><path fill="#0a0a0a" d="M 719.117188 513.398438 C 719.117188 512.5625 718.4375 511.882812 717.605469 511.882812 L 714.734375 511.882812 L 714.734375 481.09375 C 714.734375 480.261719 714.058594 479.582031 713.222656 479.582031 L 687.894531 479.582031 C 687.058594 479.582031 686.382812 480.261719 686.382812 481.09375 L 686.382812 511.882812 L 683.511719 511.882812 C 682.675781 511.882812 682 512.5625 682 513.398438 L 682 521.492188 C 674.929688 522.25 669.398438 528.253906 669.398438 535.523438 L 669.398438 682.910156 C 669.398438 690.179688 674.929688 696.179688 682 696.9375 L 682 877.625 C 682 877.691406 682.03125 877.746094 682.039062 877.8125 C 682.042969 877.863281 682.027344 877.910156 682.039062 877.960938 L 693.878906 930.167969 L 695.820312 938.734375 C 696.332031 940.996094 698.238281 942.519531 700.558594 942.519531 C 702.878906 942.519531 704.78125 940.996094 705.292969 938.734375 L 707.238281 930.167969 L 719.078125 877.960938 C 719.089844 877.910156 719.074219 877.863281 719.078125 877.8125 C 719.085938 877.75 719.117188 877.691406 719.117188 877.625 Z M 689.40625 482.609375 L 711.707031 482.609375 L 711.707031 511.625 L 689.40625 511.625 Z M 672.425781 682.910156 L 672.425781 535.523438 C 672.425781 529.40625 677.398438 524.433594 683.515625 524.433594 C 689.628906 524.433594 694.601562 529.40625 694.601562 535.523438 L 694.601562 682.910156 C 694.601562 689.023438 689.628906 694 683.515625 694 C 677.398438 694 672.425781 689.023438 672.425781 682.910156 Z M 702.34375 938.0625 C 702.105469 939.117188 701.265625 939.492188 700.558594 939.492188 C 699.851562 939.492188 699.011719 939.117188 698.769531 938.0625 L 697.246094 931.34375 L 703.867188 931.34375 Z M 704.554688 928.320312 L 696.5625 928.320312 L 685.40625 879.136719 L 715.707031 879.136719 Z M 685.027344 876.113281 L 685.027344 696.9375 C 692.097656 696.179688 697.625 690.183594 697.625 682.910156 L 697.625 535.523438 C 697.625 528.25 692.097656 522.25 685.027344 521.492188 L 685.027344 514.910156 L 716.089844 514.910156 L 716.089844 876.113281 Z M 685.027344 876.113281 " fill-opacity="1" fill-rule="nonzero"/></g><g clip-path="url(#03097e3948)"><g transform="matrix(1, 0, 0, 1, 248, 446)"><g clip-path="url(#6152a4c0e7)"><g clip-path="url(#bcf317e6f4)"><path fill="#018d61" d="M 22.34375 125.585938 C 23.195312 127.015625 25.058594 126.710938 26.550781 126.347656 C 29.738281 125.574219 32.058594 123.230469 34.914062 121.433594 C 35.15625 124.703125 34.558594 127.855469 35.539062 130.851562 C 35.84375 131.789062 35.765625 133.269531 37.09375 133.421875 C 38.394531 133.566406 38.710938 132.238281 39.210938 131.320312 C 41.121094 127.832031 41.417969 124.015625 41.363281 119.742188 C 43.171875 121.757812 44.144531 123.992188 45.972656 125.496094 C 46.714844 126.109375 47.3125 127.089844 48.382812 127.046875 C 49.460938 127.003906 50.648438 127.964844 51.632812 126.71875 C 52.632812 125.453125 51.613281 124.5625 51.121094 123.570312 C 49.285156 119.871094 46.335938 116.839844 44.6875 113.015625 C 44.449219 111.964844 44.214844 110.90625 43.976562 109.851562 C 47.597656 104.800781 47.5 102.304688 43.484375 96.972656 C 44.226562 95.769531 44.066406 94.445312 44 93.132812 C 44.351562 90.289062 44.710938 87.445312 45.066406 84.605469 C 45.242188 83.375 45.425781 82.144531 45.601562 80.921875 C 45.964844 77.464844 46.332031 74 46.703125 70.542969 C 46.714844 69.136719 46.734375 67.730469 46.75 66.328125 C 47.367188 63.628906 47.675781 60.898438 47.742188 58.132812 C 47.78125 56.695312 47.816406 55.253906 47.859375 53.816406 C 47.191406 53.160156 46.585938 52.4375 45.972656 51.722656 C 46.585938 52.441406 47.191406 53.167969 47.859375 53.816406 C 48.6875 52.953125 48.417969 51.832031 48.445312 50.835938 C 48.484375 49.035156 49.308594 48.316406 51.042969 48.523438 C 57.304688 50.015625 63.550781 51.613281 69.84375 52.972656 C 74.53125 53.980469 74.648438 53.84375 74.507812 58.445312 C 74.3125 64.738281 74.640625 71.03125 74.550781 77.3125 C 74.441406 84.859375 73.65625 92.394531 73.300781 99.9375 C 73.105469 104.136719 73.246094 108.355469 73.113281 112.5625 C 73.078125 113.742188 73.953125 113.777344 74.550781 114.148438 C 80.050781 117.601562 86.144531 119.695312 92.261719 121.726562 C 98.792969 123.902344 105.398438 125.769531 112.128906 127.261719 C 121.277344 129.28125 130.5 130.796875 139.855469 131.082031 C 150.53125 131.40625 161.242188 131.835938 171.875 130.765625 C 190.597656 128.878906 208.738281 124.472656 225.992188 116.832031 C 232.664062 113.882812 232.742188 113.742188 232.394531 106.523438 C 232.148438 101.398438 231.933594 96.273438 231.507812 91.148438 C 231.039062 85.5 231.625 79.765625 231.214844 74.105469 C 230.777344 68.011719 231.105469 61.96875 231.265625 55.894531 C 231.308594 54.214844 231.984375 53.707031 233.253906 53.421875 C 240.492188 51.777344 247.734375 50.140625 254.984375 48.539062 C 261.636719 47.078125 268.285156 45.589844 274.960938 44.261719 C 283.226562 42.617188 291.558594 41.316406 299.765625 39.351562 C 301.492188 38.949219 303.179688 38.492188 304.871094 37.589844 C 303.238281 36.105469 301.285156 36.070312 299.53125 35.636719 C 289.921875 33.269531 280.3125 30.933594 270.664062 28.730469 C 259.566406 26.191406 248.691406 22.816406 237.632812 20.183594 C 224.191406 16.980469 210.808594 13.554688 197.34375 10.511719 C 188.980469 8.617188 180.609375 6.695312 172.199219 4.992188 C 166.148438 3.761719 160.085938 2.621094 154.167969 0.828125 C 152.941406 0.457031 151.765625 0.679688 150.519531 1.027344 C 140.1875 3.875 129.644531 5.8125 119.214844 8.214844 C 109.097656 10.546875 98.921875 12.609375 88.847656 15.148438 C 82.578125 16.730469 76.300781 18.328125 70.007812 19.8125 C 63.496094 21.351562 56.964844 22.878906 50.554688 24.777344 C 41.722656 27.394531 32.703125 29.171875 23.75 31.273438 C 16.519531 32.972656 9.347656 34.902344 2.148438 36.707031 C 1.613281 36.84375 1.101562 36.964844 0.542969 37.871094 C 14.402344 41.816406 28.644531 43.519531 42.507812 46.859375 C 42.515625 47.425781 42.519531 47.988281 42.519531 48.554688 C 42.480469 49.800781 41.667969 50.925781 41.96875 52.222656 C 42.148438 55.429688 40.5 58.527344 41.394531 61.785156 C 40.550781 62.8125 40.921875 64.03125 40.890625 65.183594 C 40.566406 69.144531 39.386719 73.035156 39.832031 77.070312 C 39.65625 78.164062 39.472656 79.253906 39.289062 80.351562 C 38.765625 84.5625 38.234375 88.769531 37.710938 92.980469 C 37.542969 94.320312 37.742188 95.707031 37.175781 96.992188 C 34.972656 99.335938 32.957031 101.671875 33.203125 105.292969 C 33.324219 107.121094 34.097656 108.476562 34.984375 109.902344 C 34.941406 111.089844 33.75 111.542969 33.34375 112.5 C 31.394531 115.757812 28.796875 118.398438 25.746094 120.632812 C 25.101562 121.105469 24.515625 121.667969 23.976562 122.257812 C 23.085938 123.21875 21.566406 124.277344 22.34375 125.585938 Z M 22.34375 125.585938 " fill-opacity="1" fill-rule="nonzero"/></g><path fill="#0a0a0a" d="M 228.730469 105.550781 C 228.730469 106.984375 228.652344 108.429688 228.757812 109.851562 C 228.867188 111.335938 228.277344 112.175781 226.914062 112.714844 C 223.425781 114.078125 220.035156 115.730469 216.484375 116.886719 C 203.835938 121.007812 191.148438 124.8125 177.785156 126.238281 C 168.910156 127.179688 160.03125 128.214844 151.152344 128.007812 C 144.339844 127.851562 137.472656 127.570312 130.652344 126.667969 C 122.316406 125.574219 114.039062 124.277344 105.9375 122.117188 C 96.613281 119.628906 87.464844 116.554688 78.644531 112.574219 C 77.53125 112.074219 76.917969 111.59375 76.867188 110.277344 C 76.648438 103.820312 77.070312 97.378906 77.609375 90.972656 C 78.121094 84.925781 77.964844 78.878906 78.203125 72.839844 C 78.410156 67.574219 78.105469 62.285156 77.96875 57.011719 C 77.925781 55.332031 78.449219 54.75 80.210938 55.21875 C 85.378906 56.597656 90.5625 57.921875 95.769531 59.164062 C 112.175781 63.082031 128.488281 67.34375 144.679688 72.085938 C 149.398438 73.464844 153.859375 74.402344 158.9375 72.703125 C 167.5625 69.8125 176.472656 67.792969 185.261719 65.394531 C 198.351562 61.820312 211.542969 58.644531 224.714844 55.402344 C 227.101562 54.808594 227.734375 55.261719 227.65625 57.652344 C 227.476562 63.074219 227.332031 68.511719 227.476562 73.929688 C 227.765625 84.476562 228.257812 95.011719 228.664062 105.554688 C 228.691406 105.550781 228.714844 105.550781 228.730469 105.550781 Z M 43.488281 43.289062 C 35.644531 41.609375 27.792969 39.941406 19.945312 38.277344 C 19.386719 38.15625 18.480469 38.472656 18.492188 37.554688 C 18.503906 36.804688 19.3125 36.792969 19.941406 36.664062 C 23.082031 36.007812 26.246094 35.429688 29.34375 34.601562 C 36.75 32.628906 44.171875 30.699219 51.503906 28.441406 C 58.0625 26.429688 64.796875 24.984375 71.453125 23.300781 C 80.703125 20.957031 89.925781 18.472656 99.21875 16.3125 C 107.449219 14.402344 115.824219 13.085938 124.027344 11.066406 C 133.359375 8.765625 142.964844 7.582031 152.035156 4.230469 C 152.503906 4.054688 152.898438 4.136719 153.316406 4.328125 C 157.359375 6.160156 161.785156 6.511719 166.03125 7.46875 C 182.917969 11.253906 199.851562 14.800781 216.664062 18.929688 C 229.230469 22.015625 241.898438 24.746094 254.300781 28.460938 C 264.660156 31.566406 275.058594 34.449219 285.636719 36.652344 C 286.257812 36.78125 287.0625 36.773438 287.121094 37.519531 C 287.203125 38.4375 286.257812 38.25 285.714844 38.363281 C 280.9375 39.398438 276.148438 40.367188 271.371094 41.40625 C 263.175781 43.191406 255.03125 45.199219 246.804688 46.78125 C 233.925781 49.257812 221.203125 52.4375 208.445312 55.4375 C 199.9375 57.433594 191.488281 59.699219 183.050781 62 C 173.828125 64.511719 164.65625 67.195312 155.460938 69.808594 C 154.046875 70.210938 152.574219 70.253906 151.199219 69.917969 C 147.308594 68.972656 143.457031 67.878906 139.605469 66.8125 C 130.609375 64.324219 121.640625 61.742188 112.621094 59.351562 C 105.476562 57.457031 98.238281 55.910156 91.097656 53.996094 C 81.355469 51.378906 71.457031 49.492188 61.632812 47.25 C 64.605469 46.855469 67.582031 46.464844 70.550781 46.070312 C 71.945312 45.910156 73.339844 45.753906 74.730469 45.59375 C 78 45.101562 81.269531 44.609375 84.539062 44.109375 C 85.96875 44.390625 87.320312 44.128906 88.632812 43.5625 C 92.492188 43.496094 96.292969 42.945312 100.046875 42.050781 C 101.691406 41.949219 103.375 42.203125 104.941406 41.457031 C 108.359375 40.902344 111.777344 40.347656 115.195312 39.792969 C 116.828125 40.109375 118.3125 39.253906 119.894531 39.222656 C 128.410156 37.871094 136.976562 36.800781 145.421875 35.058594 C 149.09375 35.058594 152.765625 35.082031 156.433594 35.050781 C 160.007812 35.023438 162.84375 33.25 162.945312 31.066406 C 163.050781 28.800781 160.175781 26.289062 156.933594 25.917969 C 154.839844 25.679688 152.726562 25.441406 150.621094 25.460938 C 147.609375 25.492188 145.1875 26.914062 143.214844 29.148438 C 138.878906 28.917969 134.8125 30.511719 130.589844 31.046875 C 128.300781 31.339844 125.933594 31.167969 123.71875 32.003906 C 122.148438 32.296875 120.570312 32.585938 119 32.878906 C 115.695312 33.0625 112.480469 33.816406 109.25 34.46875 C 107.644531 34.707031 106.035156 34.949219 104.429688 35.1875 C 100.734375 35.285156 97.160156 36.226562 93.535156 36.792969 C 91.695312 36.445312 90.132812 37.4375 88.445312 37.835938 C 85.402344 37.503906 82.457031 38.070312 79.515625 38.765625 C 79.402344 38.667969 79.285156 38.503906 79.164062 38.492188 C 78.914062 38.46875 78.859375 38.621094 79.011719 38.828125 L 79.058594 38.777344 C 77.789062 38.898438 76.480469 38.820312 75.324219 39.507812 C 70.800781 39.921875 66.265625 40.195312 61.792969 41.074219 C 60.71875 41.089844 59.644531 41.101562 58.570312 41.121094 C 56.738281 41.351562 55.046875 42.285156 53.136719 42.121094 C 49.996094 41.851562 47.140625 43.191406 44.144531 43.757812 C 43.921875 43.585938 43.726562 43.335938 43.488281 43.289062 Z M 43.488281 43.289062 " fill-opacity="1" fill-rule="nonzero"/><g clip-path="url(#1e33653394)"><path fill="#42d59b" d="M 44.699219 113.015625 C 46.351562 116.839844 49.296875 119.871094 51.132812 123.570312 C 51.625 124.558594 52.644531 125.453125 51.644531 126.71875 C 50.660156 127.964844 49.472656 127.003906 48.394531 127.046875 C 47.324219 127.089844 46.726562 126.109375 45.984375 125.496094 C 44.160156 123.984375 43.183594 121.75 41.375 119.742188 C 41.433594 124.015625 41.128906 127.832031 39.222656 131.320312 C 38.71875 132.238281 38.402344 133.566406 37.105469 133.421875 C 35.769531 133.269531 35.855469 131.789062 35.550781 130.851562 C 34.570312 127.855469 35.167969 124.699219 34.925781 121.433594 C 32.070312 123.230469 29.746094 125.574219 26.5625 126.347656 C 25.066406 126.710938 23.207031 127.023438 22.355469 125.585938 C 21.578125 124.277344 23.097656 123.21875 23.976562 122.257812 C 24.515625 121.667969 25.101562 121.105469 25.746094 120.632812 C 28.789062 118.390625 31.394531 115.757812 33.34375 112.5 C 37.074219 113.667969 40.847656 114.230469 44.699219 113.015625 Z M 43.496094 96.972656 C 47.511719 102.304688 47.609375 104.792969 43.988281 109.851562 C 40.988281 110.179688 37.988281 110.632812 34.980469 109.902344 C 34.089844 108.484375 33.316406 107.125 33.195312 105.292969 C 32.953125 101.671875 34.96875 99.328125 37.175781 96.992188 C 39.277344 96.984375 41.390625 96.980469 43.496094 96.972656 Z M 53.128906 42.105469 C 55.042969 42.269531 56.734375 41.339844 58.566406 41.109375 C 58.632812 43.457031 56.050781 44.90625 56.429688 47.359375 C 54.796875 48.503906 52.699219 47.453125 51.054688 48.523438 C 49.3125 48.316406 48.5 49.039062 48.457031 50.835938 C 48.429688 51.832031 48.699219 52.953125 47.871094 53.816406 C 46.089844 52.066406 44.765625 49.835938 42.519531 48.554688 C 42.515625 47.992188 42.507812 47.425781 42.507812 46.859375 C 43.050781 45.820312 43.597656 44.777344 44.140625 43.738281 C 47.136719 43.179688 49.988281 41.832031 53.128906 42.105469 Z M 46.714844 70.542969 C 46.351562 74 45.984375 77.464844 45.613281 80.921875 C 43.683594 79.636719 41.753906 78.355469 39.824219 77.070312 C 39.378906 73.035156 40.566406 69.152344 40.882812 65.183594 C 43.277344 66.492188 44.542969 69.011719 46.714844 70.542969 Z M 45.078125 84.609375 C 44.722656 87.453125 44.367188 90.296875 44.011719 93.136719 C 41.886719 93.941406 39.804688 93.179688 37.707031 92.984375 C 38.230469 88.773438 38.757812 84.566406 39.28125 80.355469 C 41.21875 81.769531 43.148438 83.191406 45.078125 84.609375 Z M 41.394531 61.792969 C 40.5 58.542969 42.148438 55.4375 41.96875 52.230469 C 44.292969 53.8125 45.472656 56.507812 47.75 58.140625 C 47.683594 60.902344 47.371094 63.636719 46.757812 66.332031 C 44.96875 64.816406 43.183594 63.300781 41.394531 61.792969 Z M 59.148438 47.304688 C 60.027344 45.222656 60.910156 43.140625 61.785156 41.058594 C 66.253906 40.183594 70.792969 39.910156 75.308594 39.496094 C 73.898438 41.816406 72.4375 44.097656 70.539062 46.0625 C 67.566406 46.460938 64.589844 46.847656 61.621094 47.246094 C 60.800781 47.261719 59.972656 47.285156 59.148438 47.304688 Z M 119.882812 39.214844 C 120.644531 36.53125 122.71875 34.554688 123.710938 31.996094 C 125.925781 31.164062 128.296875 31.332031 130.582031 31.042969 C 134.808594 30.5 138.875 28.90625 143.207031 29.140625 C 142.183594 31.296875 142.5625 32.984375 144.863281 34 C 145.351562 34.210938 145.421875 34.601562 145.410156 35.050781 C 136.960938 36.792969 128.398438 37.863281 119.882812 39.214844 Z M 100.035156 42.046875 C 96.285156 42.941406 92.488281 43.488281 88.621094 43.554688 C 90.015625 41.128906 92.304688 39.34375 93.523438 36.789062 C 97.148438 36.222656 100.722656 35.277344 104.417969 35.179688 C 102.957031 37.464844 101.496094 39.75 100.035156 42.046875 Z M 115.183594 39.789062 C 111.765625 40.34375 108.347656 40.894531 104.929688 41.449219 C 106.28125 39.070312 108.28125 37.085938 109.242188 34.460938 C 112.476562 33.816406 115.691406 33.054688 118.996094 32.875 C 117.722656 35.175781 116.457031 37.480469 115.183594 39.789062 Z M 79.046875 38.765625 C 79.046875 38.765625 79 38.8125 79 38.8125 L 79.25 38.722656 C 79.25 38.722656 79.511719 38.753906 79.511719 38.753906 C 82.445312 38.058594 85.394531 37.5 88.4375 37.820312 C 87.136719 39.914062 85.835938 42.007812 84.53125 44.105469 C 81.261719 44.597656 77.996094 45.089844 74.726562 45.589844 C 75.902344 43.148438 78.164062 41.394531 79.046875 38.765625 Z M 79.046875 38.765625 " fill-opacity="1" fill-rule="nonzero"/></g><path fill="#01aa76" d="M 44.699219 113.015625 C 40.847656 114.230469 37.074219 113.664062 33.332031 112.492188 C 33.738281 111.539062 34.929688 111.082031 34.972656 109.894531 C 37.980469 110.625 40.980469 110.175781 43.980469 109.847656 C 44.226562 110.910156 44.460938 111.964844 44.699219 113.015625 Z M 42.519531 48.554688 C 44.765625 49.835938 46.082031 52.066406 47.871094 53.816406 C 47.835938 55.253906 47.792969 56.695312 47.753906 58.132812 C 45.480469 56.507812 44.292969 53.804688 41.972656 52.222656 C 41.667969 50.933594 42.480469 49.800781 42.519531 48.554688 Z M 46.714844 70.542969 C 44.542969 69.003906 43.277344 66.492188 40.890625 65.1875 C 40.925781 64.039062 40.550781 62.820312 41.394531 61.792969 C 43.183594 63.308594 44.972656 64.816406 46.757812 66.332031 C 46.746094 67.730469 46.726562 69.136719 46.714844 70.542969 Z M 39.824219 77.074219 C 41.753906 78.359375 43.683594 79.644531 45.613281 80.929688 C 45.4375 82.15625 45.253906 83.382812 45.078125 84.609375 C 43.148438 83.191406 41.21875 81.773438 39.28125 80.355469 C 39.464844 79.261719 39.648438 78.164062 39.824219 77.074219 Z M 43.496094 96.972656 C 41.390625 96.980469 39.28125 96.984375 37.171875 96.992188 C 37.738281 95.707031 37.535156 94.320312 37.707031 92.980469 C 39.804688 93.175781 41.886719 93.933594 44.011719 93.132812 C 44.078125 94.445312 44.238281 95.773438 43.496094 96.972656 Z M 56.421875 47.359375 C 56.046875 44.902344 58.625 43.457031 58.558594 41.109375 C 59.632812 41.089844 60.707031 41.078125 61.78125 41.058594 C 60.902344 43.140625 60.019531 45.222656 59.144531 47.304688 C 58.242188 47.324219 57.332031 47.339844 56.421875 47.359375 Z M 100.035156 42.046875 C 101.496094 39.757812 102.957031 37.46875 104.421875 35.179688 C 106.03125 34.941406 107.636719 34.699219 109.242188 34.460938 C 108.28125 37.085938 106.28125 39.070312 104.929688 41.449219 C 103.363281 42.191406 101.679688 41.9375 100.035156 42.046875 Z M 123.710938 31.996094 C 122.71875 34.554688 120.636719 36.539062 119.882812 39.214844 C 118.292969 39.246094 116.808594 40.105469 115.183594 39.789062 C 116.457031 37.480469 117.722656 35.175781 118.996094 32.875 C 120.570312 32.582031 122.140625 32.289062 123.710938 31.996094 Z M 93.527344 36.78125 C 92.3125 39.335938 90.023438 41.121094 88.628906 43.550781 C 87.3125 44.117188 85.957031 44.378906 84.53125 44.097656 C 85.835938 42.003906 87.136719 39.910156 88.4375 37.816406 C 90.125 37.425781 91.691406 36.441406 93.527344 36.78125 Z M 70.539062 46.0625 C 72.4375 44.097656 73.890625 41.816406 75.308594 39.496094 C 76.46875 38.808594 77.78125 38.886719 79.046875 38.765625 C 78.164062 41.394531 75.902344 43.148438 74.71875 45.589844 C 73.324219 45.746094 71.933594 45.90625 70.539062 46.0625 Z M 79.15625 38.480469 C 79.285156 38.492188 79.394531 38.65625 79.511719 38.753906 C 79.511719 38.753906 79.25 38.722656 79.25 38.722656 L 79 38.8125 C 78.847656 38.605469 78.902344 38.457031 79.15625 38.480469 Z M 79.15625 38.480469 " fill-opacity="1" fill-rule="nonzero"/></g></g></g><g clip-path="url(#581e2b160c)"><g clip-path="url(#7490e2f2ef)"><g transform="matrix(1, 0, 0, 1, 676, 564)"><g clip-path="url(#0d2fc1fdb0)"><g clip-path="url(#2720cc4cb0)"><g clip-path="url(#20a8d3e386)"><path fill="#f8fafc" d="M 0.34375 0.160156 L 4.09375 0.160156 L 4.09375 121.742188 L 0.34375 121.742188 Z M 0.34375 0.160156 " fill-opacity="1" fill-rule="nonzero"/></g></g></g></g></g></g><g clip-path="url(#fb5d78ec95)"><g clip-path="url(#6ae8b10445)"><g transform="matrix(1, 0, 0, 1, 676, 543)"><g clip-path="url(#7642876b47)"><g clip-path="url(#b9e34322be)"><g clip-path="url(#b2b9cade23)"><path fill="#f8fafc" d="M 0.34375 0.992188 L 4.09375 0.992188 L 4.09375 4.742188 L 0.34375 4.742188 Z M 0.34375 0.992188 " fill-opacity="1" fill-rule="nonzero"/></g></g></g></g></g></g><g clip-path="url(#0ca997de95)"><g clip-path="url(#1d17bd5842)"><g transform="matrix(1, 0, 0, 1, 692, 488)"><g clip-path="url(#63829c4a77)"><g clip-path="url(#74b8fb714e)"><g clip-path="url(#da74528877)"><path fill="#f8fafc" d="M 0.0078125 0.25 L 3.757812 0.25 L 3.757812 8.6875 L 0.0078125 8.6875 Z M 0.0078125 0.25 " fill-opacity="1" fill-rule="nonzero"/></g></g></g></g></g></g><g clip-path="url(#4602819c26)"><g clip-path="url(#6887ddbc8d)"><g transform="matrix(1, 0, 0, 1, 698, 935)"><g clip-path="url(#3c36965b0d)"><g clip-path="url(#99c0c5df65)"><g clip-path="url(#003090745d)"><path fill="#f8fafc" d="M 0.851562 0.851562 L 4.601562 0.851562 L 4.601562 4.601562 L 0.851562 4.601562 Z M 0.851562 0.851562 " fill-opacity="1" fill-rule="nonzero"/></g></g></g></g></g></g><g clip-path="url(#af08dcaeca)"><path fill="#0a0a0a" d="M 700.71875 943.113281 L 701.605469 942.96875 L 704.058594 942.574219 C 712.515625 939.929688 718.734375 938.167969 722.714844 937.292969 C 738.378906 934.742188 749.097656 932.714844 754.871094 931.207031 L 785.722656 922.902344 C 789.195312 922.328125 802.148438 921.339844 824.578125 919.945312 C 834.894531 919.265625 841.789062 919.003906 845.257812 919.160156 C 852.261719 919.390625 864.097656 921.859375 880.753906 926.558594 C 883.109375 927.386719 886.277344 928.769531 890.261719 930.710938 L 918.464844 945.175781 C 921.285156 946.574219 923.960938 947.527344 926.5 948.035156 L 940.855469 950.316406 L 953.304688 953.109375 C 957.96875 953.789062 961.8125 954.210938 964.839844 954.375 C 966.4375 954.476562 968.058594 954.457031 969.703125 954.320312 L 977.039062 953.457031 C 982.78125 953.195312 987.167969 952.910156 990.191406 952.59375 C 993.59375 952.265625 996.027344 951.96875 997.488281 951.710938 C 999.222656 951.519531 1005.058594 950.257812 1014.992188 947.921875 C 1017.773438 947.269531 1020.082031 946.558594 1021.917969 945.792969 C 1062.832031 926.296875 1084.363281 916.167969 1086.519531 915.402344 C 1088.765625 914.078125 1099.613281 909.921875 1119.054688 902.9375 L 1120.402344 901.480469 C 1119.621094 901.273438 1118.257812 901.148438 1116.3125 901.097656 C 1103.984375 901.285156 1093.761719 902.621094 1085.644531 905.105469 C 1073.140625 908.203125 1049.398438 915.589844 1014.421875 927.269531 C 1004.277344 928.675781 997.519531 929.480469 994.152344 929.6875 C 989.722656 929.898438 983.53125 929.855469 975.574219 929.5625 L 968.792969 929.820312 C 967.757812 929.90625 964.460938 929.394531 958.902344 928.28125 L 947.078125 924.570312 L 931.960938 921.0625 C 915.667969 911.566406 901.152344 904.953125 888.410156 901.21875 C 878.507812 899.066406 869.53125 897.53125 861.480469 896.617188 C 857.726562 896.152344 853.570312 895.777344 849.007812 895.496094 C 847.378906 895.421875 845.105469 895.535156 842.183594 895.839844 C 808.972656 900.511719 788.25 904.125 780.015625 906.675781 C 776.777344 907.625 766.710938 911.984375 749.808594 919.757812 L 720.347656 931.429688 C 716.601562 933.179688 711 936.746094 703.542969 942.125 C 702.878906 942.585938 701.9375 942.914062 700.71875 943.113281 " fill-opacity="1" fill-rule="nonzero"/></g></svg>